<?xml version="1.0"?>
<svg xmlns="http://www.w3.org/2000/svg" xmlns:lc="http://www.librecad.org" xmlns:xlink="http://www.w3.org/1999/xlink" width="470mm" height="310mm" viewBox="0 0 470 310">
    <g lc:layername="0" lc:is_locked="false" lc:is_construction="false" fill="none" stroke="black" stroke-width="1">
        <circle cx="5" cy="205" r="5"/>
        <circle cx="5" cy="185" r="5"/>
        <circle cx="5" cy="125" r="5"/>
        <circle cx="5" cy="105" r="5"/>
        <circle cx="15" cy="215" r="5"/>
        <circle cx="15" cy="195" r="5"/>
        <circle cx="15" cy="135" r="5"/>
        <circle cx="15" cy="115" r="5"/>
        <circle cx="25" cy="185" r="5"/>
        <circle cx="25" cy="165" r="5"/>
        <circle cx="25" cy="105" r="5"/>
        <circle cx="25" cy="85" r="5"/>
        <circle cx="35" cy="95" r="5"/>
        <circle cx="35" cy="115" r="5"/>
        <circle cx="35" cy="175" r="5"/>
        <circle cx="35" cy="195" r="5"/>
        <circle cx="45" cy="105" r="5"/>
        <circle cx="45" cy="125" r="5"/>
        <circle cx="45" cy="145" r="5"/>
        <circle cx="45" cy="165" r="5"/>
        <circle cx="45" cy="185" r="5"/>
        <circle cx="45" cy="205" r="5"/>
        <circle cx="45" cy="225" r="5"/>
        <circle cx="45" cy="245" r="5"/>
        <circle cx="55" cy="115" r="5"/>
        <circle cx="55" cy="135" r="5"/>
        <circle cx="55" cy="155" r="5"/>
        <circle cx="55" cy="175" r="5"/>
        <circle cx="55" cy="195" r="5"/>
        <circle cx="55" cy="215" r="5"/>
        <circle cx="55" cy="235" r="5"/>
        <circle cx="55" cy="255" r="5"/>
        <circle cx="65" cy="105" r="5"/>
        <circle cx="65" cy="85" r="5"/>
        <circle cx="65" cy="125" r="5"/>
        <circle cx="65" cy="145" r="5"/>
        <circle cx="65" cy="185" r="5"/>
        <circle cx="65" cy="205" r="5"/>
        <circle cx="65" cy="225" r="5"/>
        <circle cx="75" cy="95" r="5"/>
        <circle cx="75" cy="115" r="5"/>
        <circle cx="75" cy="135" r="5"/>
        <circle cx="75" cy="175" r="5"/>
        <circle cx="75" cy="235" r="5"/>
        <circle cx="85" cy="105" r="5"/>
        <circle cx="85" cy="125" r="5"/>
        <circle cx="85" cy="145" r="5"/>
        <circle cx="85" cy="245" r="5"/>
        <circle cx="85" cy="45" r="5"/>
        <circle cx="85" cy="25" r="5"/>
        <circle cx="95" cy="35" r="5"/>
        <circle cx="95" cy="55" r="5"/>
        <circle cx="95" cy="115" r="5"/>
        <circle cx="95" cy="135" r="5"/>
        <circle cx="95" cy="235" r="5"/>
        <circle cx="95" cy="255" r="5"/>
        <circle cx="105" cy="25" r="5"/>
        <circle cx="105" cy="5" r="5"/>
        <circle cx="105" cy="105" r="5"/>
        <circle cx="105" cy="85" r="5"/>
        <circle cx="105" cy="225" r="5"/>
        <circle cx="105" cy="205" r="5"/>
        <circle cx="115" cy="15" r="5"/>
        <circle cx="115" cy="35" r="5"/>
        <circle cx="115" cy="95" r="5"/>
        <circle cx="115" cy="215" r="5"/>
        <circle cx="115" cy="235" r="5"/>
        <circle cx="125" cy="25" r="5"/>
        <circle cx="125" cy="45" r="5"/>
        <circle cx="125" cy="65" r="5"/>
        <circle cx="125" cy="85" r="5"/>
        <circle cx="125" cy="105" r="5"/>
        <circle cx="135" cy="35" r="5"/>
        <circle cx="135" cy="55" r="5"/>
        <circle cx="135" cy="75" r="5"/>
        <circle cx="135" cy="95" r="5"/>
        <circle cx="135" cy="115" r="5"/>
        <circle cx="145" cy="45" r="5"/>
        <circle cx="145" cy="25" r="5"/>
        <circle cx="145" cy="5" r="5"/>
        <circle cx="145" cy="65" r="5"/>
        <circle cx="145" cy="85" r="5"/>
        <circle cx="145" cy="105" r="5"/>
        <circle cx="145" cy="125" r="5"/>
        <circle cx="155" cy="15" r="5"/>
        <circle cx="155" cy="35" r="5"/>
        <circle cx="155" cy="55" r="5"/>
        <circle cx="155" cy="75" r="5"/>
        <circle cx="155" cy="95" r="5"/>
        <circle cx="155" cy="115" r="5"/>
        <circle cx="155" cy="135" r="5"/>
        <circle cx="165" cy="145" r="5"/>
        <circle cx="165" cy="125" r="5"/>
        <circle cx="165" cy="105" r="5"/>
        <circle cx="165" cy="85" r="5"/>
        <circle cx="165" cy="65" r="5"/>
        <circle cx="175" cy="135" r="5"/>
        <circle cx="175" cy="115" r="5"/>
        <circle cx="175" cy="95" r="5"/>
        <circle cx="175" cy="75" r="5"/>
        <circle cx="185" cy="145" r="5"/>
        <circle cx="185" cy="105" r="5"/>
        <circle cx="185" cy="85" r="5"/>
        <circle cx="185" cy="65" r="5"/>
        <circle cx="185" cy="45" r="5"/>
        <circle cx="195" cy="55" r="5"/>
        <circle cx="195" cy="75" r="5"/>
        <circle cx="195" cy="95" r="5"/>
        <circle cx="205" cy="105" r="5"/>
        <circle cx="205" cy="125" r="5"/>
        <circle cx="205" cy="165" r="5"/>
        <circle cx="205" cy="205" r="5"/>
        <circle cx="215" cy="115" r="5"/>
        <circle cx="215" cy="135" r="5"/>
        <circle cx="215" cy="155" r="5"/>
        <circle cx="225" cy="165" r="5"/>
        <circle cx="225" cy="145" r="5"/>
        <circle cx="225" cy="125" r="5"/>
        <circle cx="225" cy="105" r="5"/>
        <circle cx="235" cy="115" r="5"/>
        <circle cx="235" cy="135" r="5"/>
        <circle cx="235" cy="155" r="5"/>
        <circle cx="245" cy="165" r="5"/>
        <circle cx="245" cy="145" r="5"/>
        <circle cx="245" cy="125" r="5"/>
        <circle cx="245" cy="105" r="5"/>
        <circle cx="255" cy="115" r="5"/>
        <circle cx="255" cy="135" r="5"/>
        <circle cx="255" cy="155" r="5"/>
        <circle cx="265" cy="165" r="5"/>
        <circle cx="265" cy="145" r="5"/>
        <circle cx="265" cy="125" r="5"/>
        <circle cx="265" cy="105" r="5"/>
        <circle cx="275" cy="115" r="5"/>
        <circle cx="275" cy="135" r="5"/>
        <circle cx="275" cy="155" r="5"/>
        <circle cx="285" cy="165" r="5"/>
        <circle cx="285" cy="145" r="5"/>
        <circle cx="285" cy="125" r="5"/>
        <circle cx="285" cy="105" r="5"/>
        <circle cx="295" cy="115" r="5"/>
        <circle cx="295" cy="135" r="5"/>
        <circle cx="295" cy="155" r="5"/>
        <circle cx="305" cy="165" r="5"/>
        <circle cx="305" cy="145" r="5"/>
        <circle cx="305" cy="125" r="5"/>
        <circle cx="305" cy="105" r="5"/>
        <circle cx="315" cy="115" r="5"/>
        <circle cx="315" cy="135" r="5"/>
        <circle cx="315" cy="155" r="5"/>
        <circle cx="215" cy="195" r="5"/>
        <circle cx="225" cy="85" r="5"/>
        <circle cx="235" cy="95" r="5"/>
        <circle cx="235" cy="175" r="5"/>
        <circle cx="225" cy="185" r="5"/>
        <circle cx="235" cy="195" r="5"/>
        <circle cx="225" cy="205" r="5"/>
        <circle cx="235" cy="215" r="5"/>
        <circle cx="225" cy="225" r="5"/>
        <circle cx="245" cy="225" r="5"/>
        <circle cx="255" cy="175" r="5"/>
        <circle cx="245" cy="185" r="5"/>
        <circle cx="265" cy="185" r="5"/>
        <circle cx="265" cy="85" r="5"/>
        <circle cx="255" cy="55" r="5"/>
        <circle cx="245" cy="45" r="5"/>
        <circle cx="255" cy="35" r="5"/>
        <circle cx="245" cy="25" r="5"/>
        <circle cx="265" cy="25" r="5"/>
        <circle cx="275" cy="15" r="5"/>
        <circle cx="265" cy="5" r="5"/>
        <circle cx="275" cy="35" r="5"/>
        <circle cx="285" cy="25" r="5"/>
        <circle cx="255" cy="215" r="5"/>
        <circle cx="275" cy="95" r="5"/>
        <circle cx="275" cy="175" r="5"/>
        <circle cx="285" cy="45" r="5"/>
        <circle cx="285" cy="65" r="5"/>
        <circle cx="285" cy="85" r="5"/>
        <circle cx="285" cy="185" r="5"/>
        <circle cx="295" cy="35" r="5"/>
        <circle cx="295" cy="55" r="5"/>
        <circle cx="295" cy="75" r="5"/>
        <circle cx="295" cy="95" r="5"/>
        <circle cx="295" cy="175" r="5"/>
        <circle cx="295" cy="195" r="5"/>
        <circle cx="295" cy="245" r="5"/>
        <circle cx="295" cy="285" r="5"/>
        <circle cx="305" cy="5" r="5"/>
        <circle cx="305" cy="25" r="5"/>
        <circle cx="305" cy="45" r="5"/>
        <circle cx="305" cy="65" r="5"/>
        <circle cx="305" cy="85" r="5"/>
        <circle cx="305" cy="185" r="5"/>
        <circle cx="305" cy="205" r="5"/>
        <circle cx="305" cy="235" r="5"/>
        <circle cx="305" cy="275" r="5"/>
        <circle cx="315" cy="15" r="5"/>
        <circle cx="315" cy="35" r="5"/>
        <circle cx="315" cy="55" r="5"/>
        <circle cx="315" cy="75" r="5"/>
        <circle cx="315" cy="95" r="5"/>
        <circle cx="315" cy="175" r="5"/>
        <circle cx="315" cy="195" r="5"/>
        <circle cx="315" cy="225" r="5"/>
        <circle cx="315" cy="245" r="5"/>
        <circle cx="315" cy="265" r="5"/>
        <circle cx="315" cy="285" r="5"/>
        <circle cx="315" cy="305" r="5"/>
        <circle cx="325" cy="65" r="5"/>
        <circle cx="325" cy="85" r="5"/>
        <circle cx="325" cy="145" r="5"/>
        <circle cx="325" cy="165" r="5"/>
        <circle cx="325" cy="205" r="5"/>
        <circle cx="325" cy="235" r="5"/>
        <circle cx="325" cy="255" r="5"/>
        <circle cx="325" cy="275" r="5"/>
        <circle cx="325" cy="295" r="5"/>
        <circle cx="335" cy="75" r="5"/>
        <circle cx="335" cy="95" r="5"/>
        <circle cx="335" cy="155" r="5"/>
        <circle cx="335" cy="175" r="5"/>
        <circle cx="335" cy="215" r="5"/>
        <circle cx="335" cy="245" r="5"/>
        <circle cx="335" cy="265" r="5"/>
        <circle cx="335" cy="305" r="5"/>
        <circle cx="345" cy="65" r="5"/>
        <circle cx="345" cy="45" r="5"/>
        <circle cx="345" cy="145" r="5"/>
        <circle cx="345" cy="125" r="5"/>
        <circle cx="345" cy="205" r="5"/>
        <circle cx="345" cy="255" r="5"/>
        <circle cx="345" cy="295" r="5"/>
        <circle cx="355" cy="55" r="5"/>
        <circle cx="355" cy="75" r="5"/>
        <circle cx="355" cy="135" r="5"/>
        <circle cx="355" cy="155" r="5"/>
        <circle cx="345" cy="235" r="5"/>
        <circle cx="355" cy="225" r="5"/>
        <circle cx="355" cy="245" r="5"/>
        <circle cx="355" cy="265" r="5"/>
        <circle cx="365" cy="215" r="5"/>
        <circle cx="365" cy="255" r="5"/>
        <circle cx="375" cy="265" r="5"/>
        <circle cx="375" cy="285" r="5"/>
        <circle cx="385" cy="275" r="5"/>
        <circle cx="385" cy="255" r="5"/>
        <circle cx="385" cy="235" r="5"/>
        <circle cx="395" cy="245" r="5"/>
        <circle cx="395" cy="265" r="5"/>
        <circle cx="395" cy="285" r="5"/>
        <circle cx="395" cy="305" r="5"/>
        <circle cx="405" cy="255" r="5"/>
        <circle cx="405" cy="275" r="5"/>
        <circle cx="405" cy="295" r="5"/>
        <circle cx="415" cy="305" r="5"/>
        <circle cx="425" cy="295" r="5"/>
        <circle cx="415" cy="265" r="5"/>
        <circle cx="415" cy="245" r="5"/>
        <circle cx="415" cy="205" r="5"/>
        <circle cx="425" cy="255" r="5"/>
        <circle cx="425" cy="235" r="5"/>
        <circle cx="425" cy="195" r="5"/>
        <circle cx="435" cy="205" r="5"/>
        <circle cx="435" cy="225" r="5"/>
        <circle cx="435" cy="245" r="5"/>
        <circle cx="435" cy="265" r="5"/>
        <circle cx="445" cy="195" r="5"/>
        <circle cx="445" cy="215" r="5"/>
        <circle cx="445" cy="235" r="5"/>
        <circle cx="445" cy="255" r="5"/>
        <circle cx="455" cy="225" r="5"/>
        <circle cx="465" cy="215" r="5"/>
        <circle cx="455" cy="265" r="5"/>
        <circle cx="465" cy="255" r="5"/>
    </g>
</svg>
