G75*
G70*
%OFA0B0*%
%FSLAX24Y24*%
%IPPOS*%
%LPD*%
%AMOC8*
5,1,8,0,0,1.08239X$1,22.5*
%
%ADD10C,0.0024*%
%ADD11C,0.0787*%
%ADD12C,0.0100*%
%ADD13C,0.0270*%
%ADD14C,0.0050*%
D10*
X020256Y027737D02*
X020256Y027949D01*
X020586Y027949D01*
X020586Y027737D01*
X020256Y027737D01*
X020256Y027760D02*
X020586Y027760D01*
X020586Y027783D02*
X020256Y027783D01*
X020256Y027806D02*
X020586Y027806D01*
X020586Y027829D02*
X020256Y027829D01*
X020256Y027852D02*
X020586Y027852D01*
X020586Y027875D02*
X020256Y027875D01*
X020256Y027898D02*
X020586Y027898D01*
X020586Y027921D02*
X020256Y027921D01*
X020256Y027944D02*
X020586Y027944D01*
X020256Y028327D02*
X020256Y028539D01*
X020586Y028539D01*
X020586Y028327D01*
X020256Y028327D01*
X020256Y028350D02*
X020586Y028350D01*
X020586Y028373D02*
X020256Y028373D01*
X020256Y028396D02*
X020586Y028396D01*
X020586Y028419D02*
X020256Y028419D01*
X020256Y028442D02*
X020586Y028442D01*
X020586Y028465D02*
X020256Y028465D01*
X020256Y028488D02*
X020586Y028488D01*
X020586Y028511D02*
X020256Y028511D01*
X020256Y028534D02*
X020586Y028534D01*
X020256Y038760D02*
X020256Y038972D01*
X020586Y038972D01*
X020586Y038760D01*
X020256Y038760D01*
X020256Y038783D02*
X020586Y038783D01*
X020586Y038806D02*
X020256Y038806D01*
X020256Y038829D02*
X020586Y038829D01*
X020586Y038852D02*
X020256Y038852D01*
X020256Y038875D02*
X020586Y038875D01*
X020586Y038898D02*
X020256Y038898D01*
X020256Y038921D02*
X020586Y038921D01*
X020586Y038944D02*
X020256Y038944D01*
X020256Y038967D02*
X020586Y038967D01*
X020256Y039351D02*
X020256Y039563D01*
X020586Y039563D01*
X020586Y039351D01*
X020256Y039351D01*
X020256Y039374D02*
X020586Y039374D01*
X020586Y039397D02*
X020256Y039397D01*
X020256Y039420D02*
X020586Y039420D01*
X020586Y039443D02*
X020256Y039443D01*
X020256Y039466D02*
X020586Y039466D01*
X020586Y039489D02*
X020256Y039489D01*
X020256Y039512D02*
X020586Y039512D01*
X020586Y039535D02*
X020256Y039535D01*
X020256Y039558D02*
X020586Y039558D01*
X048563Y037988D02*
X048775Y037988D01*
X048775Y037658D01*
X048563Y037658D01*
X048563Y037988D01*
X048563Y037681D02*
X048775Y037681D01*
X048775Y037704D02*
X048563Y037704D01*
X048563Y037727D02*
X048775Y037727D01*
X048775Y037750D02*
X048563Y037750D01*
X048563Y037773D02*
X048775Y037773D01*
X048775Y037796D02*
X048563Y037796D01*
X048563Y037819D02*
X048775Y037819D01*
X048775Y037842D02*
X048563Y037842D01*
X048563Y037865D02*
X048775Y037865D01*
X048775Y037888D02*
X048563Y037888D01*
X048563Y037911D02*
X048775Y037911D01*
X048775Y037934D02*
X048563Y037934D01*
X048563Y037957D02*
X048775Y037957D01*
X048775Y037980D02*
X048563Y037980D01*
X049154Y037988D02*
X049366Y037988D01*
X049366Y037658D01*
X049154Y037658D01*
X049154Y037988D01*
X049154Y037681D02*
X049366Y037681D01*
X049366Y037704D02*
X049154Y037704D01*
X049154Y037727D02*
X049366Y037727D01*
X049366Y037750D02*
X049154Y037750D01*
X049154Y037773D02*
X049366Y037773D01*
X049366Y037796D02*
X049154Y037796D01*
X049154Y037819D02*
X049366Y037819D01*
X049366Y037842D02*
X049154Y037842D01*
X049154Y037865D02*
X049366Y037865D01*
X049366Y037888D02*
X049154Y037888D01*
X049154Y037911D02*
X049366Y037911D01*
X049366Y037934D02*
X049154Y037934D01*
X049154Y037957D02*
X049366Y037957D01*
X049366Y037980D02*
X049154Y037980D01*
X050138Y028933D02*
X050138Y028721D01*
X050138Y028933D02*
X050468Y028933D01*
X050468Y028721D01*
X050138Y028721D01*
X050138Y028744D02*
X050468Y028744D01*
X050468Y028767D02*
X050138Y028767D01*
X050138Y028790D02*
X050468Y028790D01*
X050468Y028813D02*
X050138Y028813D01*
X050138Y028836D02*
X050468Y028836D01*
X050468Y028859D02*
X050138Y028859D01*
X050138Y028882D02*
X050468Y028882D01*
X050468Y028905D02*
X050138Y028905D01*
X050138Y028928D02*
X050468Y028928D01*
X050138Y028342D02*
X050138Y028130D01*
X050138Y028342D02*
X050468Y028342D01*
X050468Y028130D01*
X050138Y028130D01*
X050138Y028153D02*
X050468Y028153D01*
X050468Y028176D02*
X050138Y028176D01*
X050138Y028199D02*
X050468Y028199D01*
X050468Y028222D02*
X050138Y028222D01*
X050138Y028245D02*
X050468Y028245D01*
X050468Y028268D02*
X050138Y028268D01*
X050138Y028291D02*
X050468Y028291D01*
X050468Y028314D02*
X050138Y028314D01*
X050138Y028337D02*
X050468Y028337D01*
D11*
X050303Y027350D03*
X050303Y021839D03*
X050303Y032862D03*
X047862Y037823D03*
X020421Y037980D03*
X020421Y032469D03*
X020421Y026957D03*
X020421Y021445D03*
D12*
X018918Y019587D02*
X018918Y040941D01*
X048948Y040941D01*
X052414Y044407D01*
X052451Y044437D01*
X052539Y044474D01*
X052634Y044474D01*
X052722Y044437D01*
X052759Y044407D01*
X052785Y044381D01*
X052803Y044363D01*
X055549Y041617D01*
X055579Y041580D01*
X055615Y041492D01*
X055615Y041397D01*
X055579Y041309D01*
X055549Y041273D01*
X055505Y041229D01*
X052082Y037806D01*
X052082Y019587D01*
X018918Y019587D01*
X018918Y019609D02*
X052082Y019609D01*
X052082Y019708D02*
X018918Y019708D01*
X018918Y019806D02*
X052082Y019806D01*
X052082Y019905D02*
X018918Y019905D01*
X018918Y020003D02*
X052082Y020003D01*
X052082Y020102D02*
X018918Y020102D01*
X018918Y020200D02*
X052082Y020200D01*
X052082Y020299D02*
X018918Y020299D01*
X018918Y020397D02*
X052082Y020397D01*
X052082Y020496D02*
X018918Y020496D01*
X018918Y020594D02*
X052082Y020594D01*
X052082Y020693D02*
X018918Y020693D01*
X018918Y020791D02*
X052082Y020791D01*
X052082Y020890D02*
X018918Y020890D01*
X018918Y020988D02*
X020125Y020988D01*
X020136Y020980D02*
X020213Y020941D01*
X020294Y020915D01*
X020371Y020902D01*
X020371Y021078D01*
X020471Y021078D01*
X020471Y020902D01*
X020549Y020915D01*
X020630Y020941D01*
X020706Y020980D01*
X020775Y021030D01*
X020836Y021091D01*
X020886Y021160D01*
X020925Y021236D01*
X020952Y021318D01*
X020964Y021395D01*
X020788Y021395D01*
X020788Y021495D01*
X020964Y021495D01*
X020952Y021572D01*
X020925Y021654D01*
X020886Y021730D01*
X020836Y021799D01*
X020775Y021860D01*
X020706Y021910D01*
X020630Y021949D01*
X020549Y021975D01*
X020471Y021987D01*
X020471Y021811D01*
X020371Y021811D01*
X020371Y021987D01*
X020294Y021975D01*
X020213Y021949D01*
X020136Y021910D01*
X020067Y021860D01*
X020007Y021799D01*
X019956Y021730D01*
X019917Y021654D01*
X019891Y021572D01*
X019879Y021495D01*
X020055Y021495D01*
X020055Y021395D01*
X019879Y021395D01*
X019891Y021318D01*
X019917Y021236D01*
X019956Y021160D01*
X020007Y021091D01*
X020067Y021030D01*
X020136Y020980D01*
X020011Y021087D02*
X018918Y021087D01*
X018918Y021185D02*
X019943Y021185D01*
X019902Y021284D02*
X018918Y021284D01*
X018918Y021382D02*
X019881Y021382D01*
X019893Y021579D02*
X018918Y021579D01*
X018918Y021481D02*
X020055Y021481D01*
X019930Y021678D02*
X018918Y021678D01*
X018918Y021776D02*
X019990Y021776D01*
X020088Y021875D02*
X018918Y021875D01*
X018918Y021973D02*
X020287Y021973D01*
X020371Y021973D02*
X020471Y021973D01*
X020555Y021973D02*
X049775Y021973D01*
X049773Y021966D02*
X049761Y021889D01*
X049937Y021889D01*
X049937Y021789D01*
X049761Y021789D01*
X049773Y021711D01*
X049799Y021630D01*
X049838Y021554D01*
X049888Y021484D01*
X049949Y021424D01*
X050018Y021374D01*
X050094Y021335D01*
X050176Y021308D01*
X050253Y021296D01*
X050253Y021472D01*
X050353Y021472D01*
X050353Y021296D01*
X050430Y021308D01*
X050512Y021335D01*
X050588Y021374D01*
X050657Y021424D01*
X050718Y021484D01*
X050768Y021554D01*
X050807Y021630D01*
X050833Y021711D01*
X050846Y021789D01*
X050670Y021789D01*
X050670Y021889D01*
X050846Y021889D01*
X050833Y021966D01*
X050807Y022047D01*
X050768Y022124D01*
X050718Y022193D01*
X050657Y022253D01*
X050588Y022304D01*
X050512Y022342D01*
X050430Y022369D01*
X050353Y022381D01*
X050353Y022205D01*
X050253Y022205D01*
X050253Y022381D01*
X050176Y022369D01*
X050094Y022342D01*
X050018Y022304D01*
X049949Y022253D01*
X049888Y022193D01*
X049838Y022124D01*
X049799Y022047D01*
X049773Y021966D01*
X049812Y022072D02*
X018918Y022072D01*
X018918Y022170D02*
X049872Y022170D01*
X049970Y022269D02*
X018918Y022269D01*
X018918Y022367D02*
X050170Y022367D01*
X050253Y022367D02*
X050353Y022367D01*
X050436Y022367D02*
X052082Y022367D01*
X052082Y022269D02*
X050636Y022269D01*
X050734Y022170D02*
X052082Y022170D01*
X052082Y022072D02*
X050795Y022072D01*
X050831Y021973D02*
X052082Y021973D01*
X052082Y021875D02*
X050670Y021875D01*
X050844Y021776D02*
X052082Y021776D01*
X052082Y021678D02*
X050823Y021678D01*
X050781Y021579D02*
X052082Y021579D01*
X052082Y021481D02*
X050714Y021481D01*
X050600Y021382D02*
X052082Y021382D01*
X052082Y021284D02*
X020941Y021284D01*
X020962Y021382D02*
X050007Y021382D01*
X049892Y021481D02*
X020788Y021481D01*
X020949Y021579D02*
X049825Y021579D01*
X049784Y021678D02*
X020913Y021678D01*
X020853Y021776D02*
X049763Y021776D01*
X049937Y021875D02*
X020755Y021875D01*
X020471Y021875D02*
X020371Y021875D01*
X020899Y021185D02*
X052082Y021185D01*
X052082Y021087D02*
X020832Y021087D01*
X020717Y020988D02*
X052082Y020988D01*
X050353Y021382D02*
X050253Y021382D01*
X050253Y022269D02*
X050353Y022269D01*
X052082Y022466D02*
X018918Y022466D01*
X018918Y022564D02*
X052082Y022564D01*
X052082Y022663D02*
X018918Y022663D01*
X018918Y022761D02*
X052082Y022761D01*
X052082Y022860D02*
X018918Y022860D01*
X018918Y022958D02*
X052082Y022958D01*
X052082Y023057D02*
X018918Y023057D01*
X018918Y023155D02*
X052082Y023155D01*
X052082Y023254D02*
X018918Y023254D01*
X018918Y023352D02*
X052082Y023352D01*
X052082Y023451D02*
X018918Y023451D01*
X018918Y023549D02*
X052082Y023549D01*
X052082Y023648D02*
X018918Y023648D01*
X018918Y023746D02*
X052082Y023746D01*
X052082Y023845D02*
X018918Y023845D01*
X018918Y023943D02*
X052082Y023943D01*
X052082Y024042D02*
X018918Y024042D01*
X018918Y024140D02*
X052082Y024140D01*
X052082Y024239D02*
X018918Y024239D01*
X018918Y024337D02*
X052082Y024337D01*
X052082Y024436D02*
X018918Y024436D01*
X018918Y024534D02*
X052082Y024534D01*
X052082Y024633D02*
X018918Y024633D01*
X018918Y024731D02*
X052082Y024731D01*
X052082Y024830D02*
X018918Y024830D01*
X018918Y024928D02*
X052082Y024928D01*
X052082Y025027D02*
X018918Y025027D01*
X018918Y025125D02*
X052082Y025125D01*
X052082Y025224D02*
X018918Y025224D01*
X018918Y025322D02*
X052082Y025322D01*
X052082Y025421D02*
X018918Y025421D01*
X018918Y025519D02*
X052082Y025519D01*
X052082Y025618D02*
X018918Y025618D01*
X018918Y025716D02*
X052082Y025716D01*
X052082Y025815D02*
X018918Y025815D01*
X018918Y025913D02*
X052082Y025913D01*
X052082Y026012D02*
X018918Y026012D01*
X018918Y026110D02*
X052082Y026110D01*
X052082Y026209D02*
X018918Y026209D01*
X018918Y026307D02*
X052082Y026307D01*
X052082Y026406D02*
X018918Y026406D01*
X018918Y026504D02*
X020105Y026504D01*
X020113Y026496D02*
X020313Y026413D01*
X020529Y026413D01*
X020729Y026496D01*
X020882Y026649D01*
X020965Y026849D01*
X020965Y027065D01*
X020882Y027265D01*
X020729Y027418D01*
X020596Y027473D01*
X020596Y027574D01*
X020654Y027574D01*
X020748Y027669D01*
X020748Y028016D01*
X020654Y028111D01*
X020189Y028111D01*
X020094Y028016D01*
X020094Y027669D01*
X020189Y027574D01*
X020246Y027574D01*
X020246Y027473D01*
X020113Y027418D01*
X019960Y027265D01*
X019878Y027065D01*
X019878Y026849D01*
X019960Y026649D01*
X020113Y026496D01*
X020006Y026603D02*
X018918Y026603D01*
X018918Y026701D02*
X019939Y026701D01*
X019898Y026800D02*
X018918Y026800D01*
X018918Y026898D02*
X019878Y026898D01*
X019878Y026997D02*
X018918Y026997D01*
X018918Y027095D02*
X019890Y027095D01*
X019931Y027194D02*
X018918Y027194D01*
X018918Y027292D02*
X019988Y027292D01*
X020086Y027391D02*
X018918Y027391D01*
X018918Y027489D02*
X020246Y027489D01*
X020176Y027588D02*
X018918Y027588D01*
X018918Y027686D02*
X020094Y027686D01*
X020094Y027785D02*
X018918Y027785D01*
X018918Y027883D02*
X020094Y027883D01*
X020094Y027982D02*
X018918Y027982D01*
X018918Y028080D02*
X020158Y028080D01*
X020189Y028165D02*
X020654Y028165D01*
X020748Y028260D01*
X020748Y028606D01*
X020654Y028701D01*
X020596Y028701D01*
X020596Y029864D01*
X019927Y030533D01*
X019927Y032241D01*
X019956Y032184D01*
X020007Y032114D01*
X020067Y032054D01*
X020136Y032003D01*
X020213Y031965D01*
X020294Y031938D01*
X020371Y031926D01*
X020371Y032102D01*
X020471Y032102D01*
X020471Y031926D01*
X020549Y031938D01*
X020630Y031965D01*
X020706Y032003D01*
X020775Y032054D01*
X020836Y032114D01*
X020886Y032184D01*
X020925Y032260D01*
X020952Y032341D01*
X020964Y032419D01*
X020788Y032419D01*
X020788Y032519D01*
X020964Y032519D01*
X020952Y032596D01*
X020925Y032677D01*
X020886Y032753D01*
X020836Y032823D01*
X020775Y032883D01*
X020706Y032934D01*
X020630Y032972D01*
X020549Y032999D01*
X020471Y033011D01*
X020471Y032835D01*
X020371Y032835D01*
X020371Y033011D01*
X020294Y032999D01*
X020213Y032972D01*
X020136Y032934D01*
X020067Y032883D01*
X020007Y032823D01*
X019956Y032753D01*
X019927Y032696D01*
X019927Y037753D01*
X019960Y037672D01*
X020113Y037519D01*
X020313Y037437D01*
X020529Y037437D01*
X020729Y037519D01*
X020882Y037672D01*
X020965Y037872D01*
X020965Y038088D01*
X020882Y038288D01*
X020729Y038441D01*
X020596Y038496D01*
X020596Y038598D01*
X020654Y038598D01*
X020748Y038693D01*
X020748Y039039D01*
X020654Y039134D01*
X020189Y039134D01*
X020094Y039039D01*
X020094Y038693D01*
X020189Y038598D01*
X020246Y038598D01*
X020246Y038496D01*
X020113Y038441D01*
X019960Y038288D01*
X019927Y038208D01*
X019927Y039089D01*
X020108Y039270D01*
X020189Y039189D01*
X020654Y039189D01*
X020747Y039282D01*
X048545Y039282D01*
X048647Y039384D01*
X049237Y039974D01*
X049322Y039974D01*
X049380Y039916D01*
X049380Y038150D01*
X049087Y038150D01*
X048992Y038055D01*
X048992Y037590D01*
X049087Y037496D01*
X049433Y037496D01*
X049528Y037590D01*
X049528Y037603D01*
X050797Y036333D01*
X050797Y033090D01*
X050768Y033147D01*
X050718Y033216D01*
X050657Y033277D01*
X050588Y033327D01*
X050512Y033366D01*
X050430Y033393D01*
X050353Y033405D01*
X050353Y033229D01*
X050253Y033229D01*
X050253Y033405D01*
X050176Y033393D01*
X050094Y033366D01*
X050018Y033327D01*
X049949Y033277D01*
X049888Y033216D01*
X049838Y033147D01*
X049799Y033071D01*
X049773Y032990D01*
X049761Y032912D01*
X049937Y032912D01*
X049937Y032812D01*
X049761Y032812D01*
X049773Y032735D01*
X049799Y032653D01*
X049838Y032577D01*
X049888Y032508D01*
X049949Y032447D01*
X050018Y032397D01*
X050094Y032358D01*
X050176Y032332D01*
X050253Y032320D01*
X050253Y032496D01*
X050353Y032496D01*
X050353Y032320D01*
X050430Y032332D01*
X050512Y032358D01*
X050588Y032397D01*
X050657Y032447D01*
X050718Y032508D01*
X050768Y032577D01*
X050797Y032635D01*
X050797Y031202D01*
X050128Y030533D01*
X050128Y029095D01*
X050071Y029095D01*
X049976Y029000D01*
X049976Y028653D01*
X050071Y028559D01*
X050536Y028559D01*
X050630Y028653D01*
X050630Y029000D01*
X050536Y029095D01*
X050478Y029095D01*
X050478Y030388D01*
X051045Y030955D01*
X051147Y031057D01*
X051147Y036478D01*
X049730Y037895D01*
X049730Y040061D01*
X049628Y040163D01*
X049628Y040163D01*
X049565Y040226D01*
X049565Y040316D01*
X049521Y040421D01*
X049441Y040501D01*
X049336Y040544D01*
X049223Y040544D01*
X049118Y040501D01*
X049038Y040421D01*
X048995Y040316D01*
X048995Y040226D01*
X048400Y039632D01*
X020747Y039632D01*
X020654Y039725D01*
X020189Y039725D01*
X020096Y039632D01*
X019975Y039632D01*
X019872Y039529D01*
X019577Y039234D01*
X019577Y030388D01*
X019679Y030286D01*
X020246Y029719D01*
X020246Y028701D01*
X020189Y028701D01*
X020094Y028606D01*
X020094Y028260D01*
X020189Y028165D01*
X020175Y028179D02*
X018918Y028179D01*
X018918Y028277D02*
X020094Y028277D01*
X020094Y028376D02*
X018918Y028376D01*
X018918Y028474D02*
X020094Y028474D01*
X020094Y028573D02*
X018918Y028573D01*
X018918Y028671D02*
X020159Y028671D01*
X020246Y028770D02*
X018918Y028770D01*
X018918Y028868D02*
X020246Y028868D01*
X020246Y028967D02*
X018918Y028967D01*
X018918Y029065D02*
X020246Y029065D01*
X020246Y029164D02*
X018918Y029164D01*
X018918Y029262D02*
X020246Y029262D01*
X020246Y029361D02*
X018918Y029361D01*
X018918Y029459D02*
X020246Y029459D01*
X020246Y029558D02*
X018918Y029558D01*
X018918Y029656D02*
X020246Y029656D01*
X020211Y029755D02*
X018918Y029755D01*
X018918Y029853D02*
X020112Y029853D01*
X020014Y029952D02*
X018918Y029952D01*
X018918Y030050D02*
X019915Y030050D01*
X019817Y030149D02*
X018918Y030149D01*
X018918Y030247D02*
X019718Y030247D01*
X019620Y030346D02*
X018918Y030346D01*
X018918Y030444D02*
X019577Y030444D01*
X019577Y030543D02*
X018918Y030543D01*
X018918Y030641D02*
X019577Y030641D01*
X019577Y030740D02*
X018918Y030740D01*
X018918Y030838D02*
X019577Y030838D01*
X019577Y030937D02*
X018918Y030937D01*
X018918Y031035D02*
X019577Y031035D01*
X019577Y031134D02*
X018918Y031134D01*
X018918Y031232D02*
X019577Y031232D01*
X019577Y031331D02*
X018918Y031331D01*
X018918Y031429D02*
X019577Y031429D01*
X019577Y031528D02*
X018918Y031528D01*
X018918Y031626D02*
X019577Y031626D01*
X019577Y031725D02*
X018918Y031725D01*
X018918Y031823D02*
X019577Y031823D01*
X019577Y031922D02*
X018918Y031922D01*
X018918Y032020D02*
X019577Y032020D01*
X019577Y032119D02*
X018918Y032119D01*
X018918Y032217D02*
X019577Y032217D01*
X019577Y032316D02*
X018918Y032316D01*
X018918Y032414D02*
X019577Y032414D01*
X019577Y032513D02*
X018918Y032513D01*
X018918Y032611D02*
X019577Y032611D01*
X019577Y032710D02*
X018918Y032710D01*
X018918Y032808D02*
X019577Y032808D01*
X019577Y032907D02*
X018918Y032907D01*
X018918Y033005D02*
X019577Y033005D01*
X019577Y033104D02*
X018918Y033104D01*
X018918Y033202D02*
X019577Y033202D01*
X019577Y033301D02*
X018918Y033301D01*
X018918Y033399D02*
X019577Y033399D01*
X019577Y033498D02*
X018918Y033498D01*
X018918Y033596D02*
X019577Y033596D01*
X019577Y033695D02*
X018918Y033695D01*
X018918Y033793D02*
X019577Y033793D01*
X019577Y033892D02*
X018918Y033892D01*
X018918Y033990D02*
X019577Y033990D01*
X019577Y034089D02*
X018918Y034089D01*
X018918Y034187D02*
X019577Y034187D01*
X019577Y034286D02*
X018918Y034286D01*
X018918Y034384D02*
X019577Y034384D01*
X019577Y034483D02*
X018918Y034483D01*
X018918Y034581D02*
X019577Y034581D01*
X019577Y034680D02*
X018918Y034680D01*
X018918Y034778D02*
X019577Y034778D01*
X019577Y034877D02*
X018918Y034877D01*
X018918Y034975D02*
X019577Y034975D01*
X019577Y035074D02*
X018918Y035074D01*
X018918Y035172D02*
X019577Y035172D01*
X019577Y035271D02*
X018918Y035271D01*
X018918Y035369D02*
X019577Y035369D01*
X019577Y035468D02*
X018918Y035468D01*
X018918Y035566D02*
X019577Y035566D01*
X019577Y035665D02*
X018918Y035665D01*
X018918Y035763D02*
X019577Y035763D01*
X019577Y035862D02*
X018918Y035862D01*
X018918Y035960D02*
X019577Y035960D01*
X019577Y036059D02*
X018918Y036059D01*
X018918Y036157D02*
X019577Y036157D01*
X019577Y036256D02*
X018918Y036256D01*
X018918Y036354D02*
X019577Y036354D01*
X019577Y036453D02*
X018918Y036453D01*
X018918Y036551D02*
X019577Y036551D01*
X019577Y036650D02*
X018918Y036650D01*
X018918Y036748D02*
X019577Y036748D01*
X019577Y036847D02*
X018918Y036847D01*
X018918Y036945D02*
X019577Y036945D01*
X019577Y037044D02*
X018918Y037044D01*
X018918Y037142D02*
X019577Y037142D01*
X019577Y037241D02*
X018918Y037241D01*
X018918Y037339D02*
X019577Y037339D01*
X019577Y037438D02*
X018918Y037438D01*
X018918Y037536D02*
X019577Y037536D01*
X019577Y037635D02*
X018918Y037635D01*
X018918Y037733D02*
X019577Y037733D01*
X019577Y037832D02*
X018918Y037832D01*
X018918Y037930D02*
X019577Y037930D01*
X019577Y038029D02*
X018918Y038029D01*
X018918Y038127D02*
X019577Y038127D01*
X019577Y038226D02*
X018918Y038226D01*
X018918Y038324D02*
X019577Y038324D01*
X019577Y038423D02*
X018918Y038423D01*
X018918Y038521D02*
X019577Y038521D01*
X019577Y038620D02*
X018918Y038620D01*
X018918Y038718D02*
X019577Y038718D01*
X019577Y038817D02*
X018918Y038817D01*
X018918Y038915D02*
X019577Y038915D01*
X019577Y039014D02*
X018918Y039014D01*
X018918Y039112D02*
X019577Y039112D01*
X019577Y039211D02*
X018918Y039211D01*
X018918Y039309D02*
X019652Y039309D01*
X019751Y039408D02*
X018918Y039408D01*
X018918Y039506D02*
X019849Y039506D01*
X019948Y039605D02*
X018918Y039605D01*
X018918Y039703D02*
X020167Y039703D01*
X020167Y039211D02*
X020049Y039211D01*
X019950Y039112D02*
X020167Y039112D01*
X020094Y039014D02*
X019927Y039014D01*
X019927Y038915D02*
X020094Y038915D01*
X020094Y038817D02*
X019927Y038817D01*
X019927Y038718D02*
X020094Y038718D01*
X020167Y038620D02*
X019927Y038620D01*
X019927Y038521D02*
X020246Y038521D01*
X020095Y038423D02*
X019927Y038423D01*
X019927Y038324D02*
X019996Y038324D01*
X019934Y038226D02*
X019927Y038226D01*
X019927Y037733D02*
X019935Y037733D01*
X019927Y037635D02*
X019998Y037635D01*
X019927Y037536D02*
X020097Y037536D01*
X019927Y037438D02*
X020311Y037438D01*
X020532Y037438D02*
X047479Y037438D01*
X047554Y037362D02*
X047754Y037279D01*
X047970Y037279D01*
X048170Y037362D01*
X048323Y037515D01*
X048378Y037648D01*
X048401Y037648D01*
X048401Y037590D01*
X048496Y037496D01*
X048843Y037496D01*
X048937Y037590D01*
X048937Y038055D01*
X048843Y038150D01*
X048496Y038150D01*
X048401Y038055D01*
X048401Y037998D01*
X048378Y037998D01*
X048323Y038131D01*
X048170Y038284D01*
X047970Y038367D01*
X047754Y038367D01*
X047554Y038284D01*
X047401Y038131D01*
X047319Y037931D01*
X047319Y037715D01*
X047401Y037515D01*
X047554Y037362D01*
X047609Y037339D02*
X019927Y037339D01*
X019927Y037241D02*
X049890Y037241D01*
X049791Y037339D02*
X048115Y037339D01*
X048246Y037438D02*
X049693Y037438D01*
X049594Y037536D02*
X049474Y037536D01*
X049046Y037536D02*
X048883Y037536D01*
X048937Y037635D02*
X048992Y037635D01*
X048992Y037733D02*
X048937Y037733D01*
X048937Y037832D02*
X048992Y037832D01*
X048992Y037930D02*
X048937Y037930D01*
X048937Y038029D02*
X048992Y038029D01*
X049064Y038127D02*
X048866Y038127D01*
X048473Y038127D02*
X048325Y038127D01*
X048365Y038029D02*
X048401Y038029D01*
X048228Y038226D02*
X049380Y038226D01*
X049380Y038324D02*
X048073Y038324D01*
X047652Y038324D02*
X020846Y038324D01*
X020908Y038226D02*
X047496Y038226D01*
X047400Y038127D02*
X020949Y038127D01*
X020965Y038029D02*
X047359Y038029D01*
X047319Y037930D02*
X020965Y037930D01*
X020948Y037832D02*
X047319Y037832D01*
X047319Y037733D02*
X020907Y037733D01*
X020844Y037635D02*
X047352Y037635D01*
X047392Y037536D02*
X020746Y037536D01*
X020748Y038423D02*
X049380Y038423D01*
X049380Y038521D02*
X020596Y038521D01*
X020675Y038620D02*
X049380Y038620D01*
X049380Y038718D02*
X020748Y038718D01*
X020748Y038817D02*
X049380Y038817D01*
X049380Y038915D02*
X020748Y038915D01*
X020748Y039014D02*
X049380Y039014D01*
X049380Y039112D02*
X020676Y039112D01*
X020676Y039211D02*
X049380Y039211D01*
X049380Y039309D02*
X048572Y039309D01*
X048647Y039384D02*
X048647Y039384D01*
X048671Y039408D02*
X049380Y039408D01*
X049380Y039506D02*
X048769Y039506D01*
X048868Y039605D02*
X049380Y039605D01*
X049380Y039703D02*
X048966Y039703D01*
X049065Y039802D02*
X049380Y039802D01*
X049380Y039900D02*
X049163Y039900D01*
X048964Y040196D02*
X018918Y040196D01*
X018918Y040294D02*
X048995Y040294D01*
X049026Y040393D02*
X018918Y040393D01*
X018918Y040491D02*
X049108Y040491D01*
X049451Y040491D02*
X054767Y040491D01*
X054669Y040393D02*
X049533Y040393D01*
X049565Y040294D02*
X054570Y040294D01*
X054472Y040196D02*
X049595Y040196D01*
X049694Y040097D02*
X054373Y040097D01*
X054275Y039999D02*
X049730Y039999D01*
X049730Y039900D02*
X054176Y039900D01*
X054078Y039802D02*
X049730Y039802D01*
X049730Y039703D02*
X053979Y039703D01*
X053881Y039605D02*
X049730Y039605D01*
X049730Y039506D02*
X053782Y039506D01*
X053684Y039408D02*
X049730Y039408D01*
X049730Y039309D02*
X053585Y039309D01*
X053487Y039211D02*
X049730Y039211D01*
X049730Y039112D02*
X053388Y039112D01*
X053290Y039014D02*
X049730Y039014D01*
X049730Y038915D02*
X053191Y038915D01*
X053093Y038817D02*
X049730Y038817D01*
X049730Y038718D02*
X052994Y038718D01*
X052896Y038620D02*
X049730Y038620D01*
X049730Y038521D02*
X052797Y038521D01*
X052699Y038423D02*
X049730Y038423D01*
X049730Y038324D02*
X052600Y038324D01*
X052502Y038226D02*
X049730Y038226D01*
X049730Y038127D02*
X052403Y038127D01*
X052305Y038029D02*
X049730Y038029D01*
X049730Y037930D02*
X052206Y037930D01*
X052108Y037832D02*
X049794Y037832D01*
X049892Y037733D02*
X052082Y037733D01*
X052082Y037635D02*
X049991Y037635D01*
X050089Y037536D02*
X052082Y037536D01*
X052082Y037438D02*
X050188Y037438D01*
X050286Y037339D02*
X052082Y037339D01*
X052082Y037241D02*
X050385Y037241D01*
X050483Y037142D02*
X052082Y037142D01*
X052082Y037044D02*
X050582Y037044D01*
X050680Y036945D02*
X052082Y036945D01*
X052082Y036847D02*
X050779Y036847D01*
X050877Y036748D02*
X052082Y036748D01*
X052082Y036650D02*
X050976Y036650D01*
X051074Y036551D02*
X052082Y036551D01*
X052082Y036453D02*
X051147Y036453D01*
X051147Y036354D02*
X052082Y036354D01*
X052082Y036256D02*
X051147Y036256D01*
X051147Y036157D02*
X052082Y036157D01*
X052082Y036059D02*
X051147Y036059D01*
X051147Y035960D02*
X052082Y035960D01*
X052082Y035862D02*
X051147Y035862D01*
X051147Y035763D02*
X052082Y035763D01*
X052082Y035665D02*
X051147Y035665D01*
X051147Y035566D02*
X052082Y035566D01*
X052082Y035468D02*
X051147Y035468D01*
X051147Y035369D02*
X052082Y035369D01*
X052082Y035271D02*
X051147Y035271D01*
X051147Y035172D02*
X052082Y035172D01*
X052082Y035074D02*
X051147Y035074D01*
X051147Y034975D02*
X052082Y034975D01*
X052082Y034877D02*
X051147Y034877D01*
X051147Y034778D02*
X052082Y034778D01*
X052082Y034680D02*
X051147Y034680D01*
X051147Y034581D02*
X052082Y034581D01*
X052082Y034483D02*
X051147Y034483D01*
X051147Y034384D02*
X052082Y034384D01*
X052082Y034286D02*
X051147Y034286D01*
X051147Y034187D02*
X052082Y034187D01*
X052082Y034089D02*
X051147Y034089D01*
X051147Y033990D02*
X052082Y033990D01*
X052082Y033892D02*
X051147Y033892D01*
X051147Y033793D02*
X052082Y033793D01*
X052082Y033695D02*
X051147Y033695D01*
X051147Y033596D02*
X052082Y033596D01*
X052082Y033498D02*
X051147Y033498D01*
X051147Y033399D02*
X052082Y033399D01*
X052082Y033301D02*
X051147Y033301D01*
X051147Y033202D02*
X052082Y033202D01*
X052082Y033104D02*
X051147Y033104D01*
X051147Y033005D02*
X052082Y033005D01*
X052082Y032907D02*
X051147Y032907D01*
X051147Y032808D02*
X052082Y032808D01*
X052082Y032710D02*
X051147Y032710D01*
X051147Y032611D02*
X052082Y032611D01*
X052082Y032513D02*
X051147Y032513D01*
X051147Y032414D02*
X052082Y032414D01*
X052082Y032316D02*
X051147Y032316D01*
X051147Y032217D02*
X052082Y032217D01*
X052082Y032119D02*
X051147Y032119D01*
X051147Y032020D02*
X052082Y032020D01*
X052082Y031922D02*
X051147Y031922D01*
X051147Y031823D02*
X052082Y031823D01*
X052082Y031725D02*
X051147Y031725D01*
X051147Y031626D02*
X052082Y031626D01*
X052082Y031528D02*
X051147Y031528D01*
X051147Y031429D02*
X052082Y031429D01*
X052082Y031331D02*
X051147Y031331D01*
X051147Y031232D02*
X052082Y031232D01*
X052082Y031134D02*
X051147Y031134D01*
X051125Y031035D02*
X052082Y031035D01*
X052082Y030937D02*
X051027Y030937D01*
X050928Y030838D02*
X052082Y030838D01*
X052082Y030740D02*
X050830Y030740D01*
X050731Y030641D02*
X052082Y030641D01*
X052082Y030543D02*
X050633Y030543D01*
X050534Y030444D02*
X052082Y030444D01*
X052082Y030346D02*
X050478Y030346D01*
X050478Y030247D02*
X052082Y030247D01*
X052082Y030149D02*
X050478Y030149D01*
X050478Y030050D02*
X052082Y030050D01*
X052082Y029952D02*
X050478Y029952D01*
X050478Y029853D02*
X052082Y029853D01*
X052082Y029755D02*
X050478Y029755D01*
X050478Y029656D02*
X052082Y029656D01*
X052082Y029558D02*
X050478Y029558D01*
X050478Y029459D02*
X052082Y029459D01*
X052082Y029361D02*
X050478Y029361D01*
X050478Y029262D02*
X052082Y029262D01*
X052082Y029164D02*
X050478Y029164D01*
X050565Y029065D02*
X052082Y029065D01*
X052082Y028967D02*
X050630Y028967D01*
X050630Y028868D02*
X052082Y028868D01*
X052082Y028770D02*
X050630Y028770D01*
X050630Y028671D02*
X052082Y028671D01*
X052082Y028573D02*
X050549Y028573D01*
X050536Y028504D02*
X050071Y028504D01*
X049976Y028410D01*
X049976Y028063D01*
X050071Y027968D01*
X050128Y027968D01*
X050128Y027866D01*
X049995Y027811D01*
X049842Y027658D01*
X049759Y027459D01*
X049759Y027242D01*
X049842Y027042D01*
X049995Y026889D01*
X050195Y026807D01*
X050411Y026807D01*
X050611Y026889D01*
X050764Y027042D01*
X050847Y027242D01*
X050847Y027459D01*
X050764Y027658D01*
X050611Y027811D01*
X050478Y027866D01*
X050478Y027968D01*
X050536Y027968D01*
X050630Y028063D01*
X050630Y028410D01*
X050536Y028504D01*
X050566Y028474D02*
X052082Y028474D01*
X052082Y028376D02*
X050630Y028376D01*
X050630Y028277D02*
X052082Y028277D01*
X052082Y028179D02*
X050630Y028179D01*
X050630Y028080D02*
X052082Y028080D01*
X052082Y027982D02*
X050549Y027982D01*
X050478Y027883D02*
X052082Y027883D01*
X052082Y027785D02*
X050638Y027785D01*
X050736Y027686D02*
X052082Y027686D01*
X052082Y027588D02*
X050793Y027588D01*
X050834Y027489D02*
X052082Y027489D01*
X052082Y027391D02*
X050847Y027391D01*
X050847Y027292D02*
X052082Y027292D01*
X052082Y027194D02*
X050827Y027194D01*
X050786Y027095D02*
X052082Y027095D01*
X052082Y026997D02*
X050718Y026997D01*
X050620Y026898D02*
X052082Y026898D01*
X052082Y026800D02*
X020945Y026800D01*
X020965Y026898D02*
X049987Y026898D01*
X049888Y026997D02*
X020965Y026997D01*
X020952Y027095D02*
X049820Y027095D01*
X049780Y027194D02*
X020912Y027194D01*
X020855Y027292D02*
X049759Y027292D01*
X049759Y027391D02*
X020756Y027391D01*
X020596Y027489D02*
X049772Y027489D01*
X049813Y027588D02*
X020667Y027588D01*
X020748Y027686D02*
X049870Y027686D01*
X049968Y027785D02*
X020748Y027785D01*
X020748Y027883D02*
X050128Y027883D01*
X050057Y027982D02*
X020748Y027982D01*
X020684Y028080D02*
X049976Y028080D01*
X049976Y028179D02*
X020667Y028179D01*
X020748Y028277D02*
X049976Y028277D01*
X049976Y028376D02*
X020748Y028376D01*
X020748Y028474D02*
X050041Y028474D01*
X050057Y028573D02*
X020748Y028573D01*
X020684Y028671D02*
X049976Y028671D01*
X049976Y028770D02*
X020596Y028770D01*
X020596Y028868D02*
X049976Y028868D01*
X049976Y028967D02*
X020596Y028967D01*
X020596Y029065D02*
X050041Y029065D01*
X050128Y029164D02*
X020596Y029164D01*
X020596Y029262D02*
X050128Y029262D01*
X050128Y029361D02*
X020596Y029361D01*
X020596Y029459D02*
X050128Y029459D01*
X050128Y029558D02*
X020596Y029558D01*
X020596Y029656D02*
X050128Y029656D01*
X050128Y029755D02*
X020596Y029755D01*
X020596Y029853D02*
X050128Y029853D01*
X050128Y029952D02*
X020509Y029952D01*
X020410Y030050D02*
X050128Y030050D01*
X050128Y030149D02*
X020312Y030149D01*
X020213Y030247D02*
X050128Y030247D01*
X050128Y030346D02*
X020115Y030346D01*
X020016Y030444D02*
X050128Y030444D01*
X050138Y030543D02*
X019927Y030543D01*
X019927Y030641D02*
X050236Y030641D01*
X050335Y030740D02*
X019927Y030740D01*
X019927Y030838D02*
X050433Y030838D01*
X050532Y030937D02*
X019927Y030937D01*
X019927Y031035D02*
X050630Y031035D01*
X050729Y031134D02*
X019927Y031134D01*
X019927Y031232D02*
X050797Y031232D01*
X050797Y031331D02*
X019927Y031331D01*
X019927Y031429D02*
X050797Y031429D01*
X050797Y031528D02*
X019927Y031528D01*
X019927Y031626D02*
X050797Y031626D01*
X050797Y031725D02*
X019927Y031725D01*
X019927Y031823D02*
X050797Y031823D01*
X050797Y031922D02*
X019927Y031922D01*
X019927Y032020D02*
X020113Y032020D01*
X020003Y032119D02*
X019927Y032119D01*
X019927Y032217D02*
X019939Y032217D01*
X020371Y032020D02*
X020471Y032020D01*
X020729Y032020D02*
X050797Y032020D01*
X050797Y032119D02*
X020839Y032119D01*
X020903Y032217D02*
X050797Y032217D01*
X050797Y032316D02*
X020943Y032316D01*
X020963Y032414D02*
X049995Y032414D01*
X049885Y032513D02*
X020788Y032513D01*
X020947Y032611D02*
X049821Y032611D01*
X049781Y032710D02*
X020909Y032710D01*
X020847Y032808D02*
X049761Y032808D01*
X049778Y033005D02*
X020509Y033005D01*
X020471Y033005D02*
X020371Y033005D01*
X020334Y033005D02*
X019927Y033005D01*
X019927Y032907D02*
X020099Y032907D01*
X019996Y032808D02*
X019927Y032808D01*
X019927Y032710D02*
X019934Y032710D01*
X019927Y033104D02*
X049816Y033104D01*
X049878Y033202D02*
X019927Y033202D01*
X019927Y033301D02*
X049982Y033301D01*
X050217Y033399D02*
X019927Y033399D01*
X019927Y033498D02*
X050797Y033498D01*
X050797Y033596D02*
X019927Y033596D01*
X019927Y033695D02*
X050797Y033695D01*
X050797Y033793D02*
X019927Y033793D01*
X019927Y033892D02*
X050797Y033892D01*
X050797Y033990D02*
X019927Y033990D01*
X019927Y034089D02*
X050797Y034089D01*
X050797Y034187D02*
X019927Y034187D01*
X019927Y034286D02*
X050797Y034286D01*
X050797Y034384D02*
X019927Y034384D01*
X019927Y034483D02*
X050797Y034483D01*
X050797Y034581D02*
X019927Y034581D01*
X019927Y034680D02*
X050797Y034680D01*
X050797Y034778D02*
X019927Y034778D01*
X019927Y034877D02*
X050797Y034877D01*
X050797Y034975D02*
X019927Y034975D01*
X019927Y035074D02*
X050797Y035074D01*
X050797Y035172D02*
X019927Y035172D01*
X019927Y035271D02*
X050797Y035271D01*
X050797Y035369D02*
X019927Y035369D01*
X019927Y035468D02*
X050797Y035468D01*
X050797Y035566D02*
X019927Y035566D01*
X019927Y035665D02*
X050797Y035665D01*
X050797Y035763D02*
X019927Y035763D01*
X019927Y035862D02*
X050797Y035862D01*
X050797Y035960D02*
X019927Y035960D01*
X019927Y036059D02*
X050797Y036059D01*
X050797Y036157D02*
X019927Y036157D01*
X019927Y036256D02*
X050797Y036256D01*
X050776Y036354D02*
X019927Y036354D01*
X019927Y036453D02*
X050678Y036453D01*
X050579Y036551D02*
X019927Y036551D01*
X019927Y036650D02*
X050481Y036650D01*
X050382Y036748D02*
X019927Y036748D01*
X019927Y036847D02*
X050284Y036847D01*
X050185Y036945D02*
X019927Y036945D01*
X019927Y037044D02*
X050087Y037044D01*
X049988Y037142D02*
X019927Y037142D01*
X020675Y039703D02*
X048471Y039703D01*
X048570Y039802D02*
X018918Y039802D01*
X018918Y039900D02*
X048668Y039900D01*
X048767Y039999D02*
X018918Y039999D01*
X018918Y040097D02*
X048865Y040097D01*
X048991Y040984D02*
X055260Y040984D01*
X055358Y041082D02*
X049090Y041082D01*
X049188Y041181D02*
X055457Y041181D01*
X055554Y041279D02*
X049287Y041279D01*
X049385Y041378D02*
X055607Y041378D01*
X055615Y041476D02*
X049484Y041476D01*
X049582Y041575D02*
X055581Y041575D01*
X055493Y041673D02*
X049681Y041673D01*
X049779Y041772D02*
X055394Y041772D01*
X055296Y041870D02*
X049878Y041870D01*
X049976Y041969D02*
X055197Y041969D01*
X055099Y042067D02*
X050075Y042067D01*
X050173Y042166D02*
X055000Y042166D01*
X054902Y042264D02*
X050272Y042264D01*
X050370Y042363D02*
X054803Y042363D01*
X054705Y042461D02*
X050469Y042461D01*
X050567Y042560D02*
X054606Y042560D01*
X054508Y042658D02*
X050666Y042658D01*
X050764Y042757D02*
X054409Y042757D01*
X054311Y042855D02*
X050863Y042855D01*
X050961Y042954D02*
X054212Y042954D01*
X054114Y043052D02*
X051060Y043052D01*
X051158Y043151D02*
X054015Y043151D01*
X053917Y043249D02*
X051257Y043249D01*
X051355Y043348D02*
X053818Y043348D01*
X053720Y043446D02*
X051454Y043446D01*
X051552Y043545D02*
X053621Y043545D01*
X053523Y043643D02*
X051651Y043643D01*
X051749Y043742D02*
X053424Y043742D01*
X053326Y043840D02*
X051848Y043840D01*
X051946Y043939D02*
X053227Y043939D01*
X053129Y044037D02*
X052045Y044037D01*
X052143Y044136D02*
X053030Y044136D01*
X052932Y044234D02*
X052242Y044234D01*
X052340Y044333D02*
X052833Y044333D01*
X052729Y044431D02*
X052444Y044431D01*
X055161Y040885D02*
X018918Y040885D01*
X018918Y040787D02*
X055063Y040787D01*
X054964Y040688D02*
X018918Y040688D01*
X018918Y040590D02*
X054866Y040590D01*
X048456Y037536D02*
X048332Y037536D01*
X048373Y037635D02*
X048401Y037635D01*
X050253Y033399D02*
X050353Y033399D01*
X050389Y033399D02*
X050797Y033399D01*
X050797Y033301D02*
X050625Y033301D01*
X050728Y033202D02*
X050797Y033202D01*
X050790Y033104D02*
X050797Y033104D01*
X050353Y033301D02*
X050253Y033301D01*
X049937Y032907D02*
X020743Y032907D01*
X020471Y032907D02*
X020371Y032907D01*
X020904Y026701D02*
X052082Y026701D01*
X052082Y026603D02*
X020836Y026603D01*
X020738Y026504D02*
X052082Y026504D01*
X050797Y032414D02*
X050611Y032414D01*
X050721Y032513D02*
X050797Y032513D01*
X050785Y032611D02*
X050797Y032611D01*
X050353Y032414D02*
X050253Y032414D01*
X020471Y020988D02*
X020371Y020988D01*
X019358Y021445D02*
X019201Y021602D01*
D13*
X019201Y021602D03*
X019201Y021169D03*
X019201Y020736D03*
X019201Y020303D03*
X019201Y019870D03*
X019634Y019870D03*
X020067Y019870D03*
X020500Y019870D03*
X020933Y019870D03*
X021366Y019870D03*
X021799Y019870D03*
X022232Y019870D03*
X022665Y019870D03*
X023098Y019870D03*
X023531Y019870D03*
X023965Y019870D03*
X024398Y019870D03*
X024831Y019870D03*
X025264Y019870D03*
X025697Y019870D03*
X026130Y019870D03*
X026563Y019870D03*
X026996Y019870D03*
X027429Y019870D03*
X027862Y019870D03*
X028295Y019870D03*
X028728Y019870D03*
X029161Y019870D03*
X029594Y019870D03*
X030028Y019870D03*
X030461Y019870D03*
X030894Y019870D03*
X031327Y019870D03*
X031760Y019870D03*
X032193Y019870D03*
X032626Y019870D03*
X033059Y019870D03*
X033492Y019870D03*
X033925Y019870D03*
X034358Y019870D03*
X034791Y019870D03*
X035224Y019870D03*
X035657Y019870D03*
X036091Y019870D03*
X036524Y019870D03*
X036957Y019870D03*
X037390Y019870D03*
X037823Y019870D03*
X038256Y019870D03*
X038689Y019870D03*
X039122Y019870D03*
X039555Y019870D03*
X039988Y019870D03*
X040421Y019870D03*
X040854Y019870D03*
X041287Y019870D03*
X041720Y019870D03*
X042154Y019870D03*
X042587Y019870D03*
X043020Y019870D03*
X043453Y019870D03*
X043886Y019870D03*
X044319Y019870D03*
X044752Y019870D03*
X045185Y019870D03*
X045618Y019870D03*
X046051Y019870D03*
X046484Y019870D03*
X046917Y019870D03*
X047350Y019870D03*
X047783Y019870D03*
X048217Y019870D03*
X048650Y019870D03*
X049083Y019870D03*
X049516Y019870D03*
X049949Y019870D03*
X050382Y019870D03*
X050815Y019870D03*
X051248Y019870D03*
X051681Y019870D03*
X051681Y020303D03*
X051681Y020736D03*
X051681Y021169D03*
X051681Y021602D03*
X051681Y022035D03*
X051681Y022469D03*
X051681Y022902D03*
X051681Y023335D03*
X051681Y023768D03*
X051681Y024201D03*
X051681Y024634D03*
X051681Y025067D03*
X051681Y025500D03*
X051681Y025933D03*
X051681Y026366D03*
X051681Y026799D03*
X051681Y027232D03*
X051681Y027665D03*
X051681Y028098D03*
X051681Y028531D03*
X051681Y028965D03*
X051681Y029398D03*
X051681Y029831D03*
X051681Y030264D03*
X051681Y030697D03*
X051681Y031130D03*
X051681Y031563D03*
X051681Y031996D03*
X051681Y032429D03*
X051681Y032862D03*
X051681Y033295D03*
X051681Y033728D03*
X051681Y034161D03*
X051681Y034594D03*
X051681Y035028D03*
X051681Y035461D03*
X051681Y035894D03*
X051681Y036327D03*
X051681Y036760D03*
X051681Y037193D03*
X049280Y040259D03*
X048650Y040657D03*
X048217Y040657D03*
X047783Y040657D03*
X047350Y040657D03*
X046917Y040657D03*
X046484Y040657D03*
X046051Y040657D03*
X045618Y040657D03*
X045185Y040657D03*
X044752Y040657D03*
X044319Y040657D03*
X043886Y040657D03*
X043453Y040657D03*
X043020Y040657D03*
X042587Y040657D03*
X042154Y040657D03*
X041720Y040657D03*
X041287Y040657D03*
X040854Y040657D03*
X040421Y040657D03*
X039988Y040657D03*
X039555Y040657D03*
X039122Y040657D03*
X038689Y040657D03*
X038256Y040657D03*
X037823Y040657D03*
X037390Y040657D03*
X036957Y040657D03*
X036524Y040657D03*
X036091Y040657D03*
X035657Y040657D03*
X035224Y040657D03*
X034791Y040657D03*
X034358Y040657D03*
X033925Y040657D03*
X033492Y040657D03*
X033059Y040657D03*
X032626Y040657D03*
X032193Y040657D03*
X031760Y040657D03*
X031327Y040657D03*
X030894Y040657D03*
X030461Y040657D03*
X030028Y040657D03*
X029594Y040657D03*
X029161Y040657D03*
X028728Y040657D03*
X028295Y040657D03*
X027862Y040657D03*
X027429Y040657D03*
X026996Y040657D03*
X026563Y040657D03*
X026130Y040657D03*
X025697Y040657D03*
X025264Y040657D03*
X024831Y040657D03*
X024398Y040657D03*
X023965Y040657D03*
X023531Y040657D03*
X023098Y040657D03*
X022665Y040657D03*
X022232Y040657D03*
X021799Y040657D03*
X021366Y040657D03*
X020933Y040657D03*
X020500Y040657D03*
X020067Y040657D03*
X019634Y040657D03*
X019201Y040657D03*
X019201Y040224D03*
X019201Y039791D03*
X019201Y039358D03*
X019201Y038925D03*
X019201Y038492D03*
X019201Y038059D03*
X019201Y037626D03*
X019201Y037193D03*
X019201Y036760D03*
X019201Y036327D03*
X019201Y035894D03*
X019201Y035461D03*
X019201Y035028D03*
X019201Y034594D03*
X019201Y034161D03*
X019201Y033728D03*
X019201Y033295D03*
X019201Y032862D03*
X019201Y032429D03*
X019201Y031996D03*
X019201Y031563D03*
X019201Y031130D03*
X019201Y030697D03*
X019201Y030264D03*
X019201Y029831D03*
X019201Y029398D03*
X019201Y028965D03*
X019201Y028531D03*
X019201Y028098D03*
X019201Y027665D03*
X019201Y027232D03*
X019201Y026799D03*
X019201Y026366D03*
X019201Y025933D03*
X019201Y025500D03*
X019201Y025067D03*
X019201Y024634D03*
X019201Y024201D03*
X019201Y023768D03*
X019201Y023335D03*
X019201Y022902D03*
X019201Y022469D03*
X019201Y022035D03*
D14*
X019358Y021445D02*
X020421Y021445D01*
X020421Y026957D02*
X020421Y027843D01*
X020421Y028433D02*
X020421Y029791D01*
X019752Y030461D01*
X019752Y039161D01*
X020047Y039457D01*
X020421Y039457D01*
X048472Y039457D01*
X049280Y040264D01*
X049555Y039988D01*
X049555Y037823D01*
X049260Y037823D01*
X049555Y037823D02*
X050972Y036406D01*
X050972Y031130D01*
X050303Y030461D01*
X050303Y028827D01*
X050303Y028236D02*
X050303Y027350D01*
X050303Y021839D02*
X050736Y021839D01*
X050303Y032862D02*
X049831Y032862D01*
X048669Y037823D02*
X047862Y037823D01*
X020421Y037980D02*
X020421Y038866D01*
X020421Y032469D02*
X020815Y032469D01*
M02*
