G75*
G70*
%OFA0B0*%
%FSLAX24Y24*%
%IPPOS*%
%LPD*%
%AMOC8*
5,1,8,0,0,1.08239X$1,22.5*
%
%ADD10C,0.0492*%
%ADD11C,0.0867*%
%ADD12C,0.0513*%
%ADD13C,0.0058*%
%ADD14C,0.0350*%
D10*
X026593Y025293D03*
X026100Y025785D03*
X026593Y026278D03*
X027085Y026770D03*
X027577Y026278D03*
X028069Y025785D03*
X028561Y025293D03*
X028561Y026278D03*
X029053Y026770D03*
X029545Y027262D03*
X029053Y027754D03*
X029545Y026278D03*
X027085Y027754D03*
X026593Y028246D03*
X027085Y028738D03*
X027577Y029230D03*
X026593Y029230D03*
X026100Y028738D03*
X025608Y028246D03*
X025116Y028738D03*
X024624Y028246D03*
X024132Y027754D03*
X024624Y027262D03*
X026100Y027754D03*
X026593Y027262D03*
X026100Y026770D03*
X024132Y028738D03*
X025116Y029722D03*
X025608Y029230D03*
X026100Y029722D03*
X026593Y030215D03*
X027085Y030707D03*
X027577Y031199D03*
X028069Y031691D03*
X028561Y032183D03*
X028069Y032675D03*
X027577Y032183D03*
X027085Y031691D03*
X026593Y032183D03*
X027085Y032675D03*
X027577Y033167D03*
X027085Y033659D03*
X026100Y032675D03*
X025608Y032183D03*
X025116Y032675D03*
X024624Y032183D03*
X024132Y031691D03*
X024624Y031199D03*
X026100Y031691D03*
X026593Y031199D03*
X026100Y030707D03*
X028069Y030707D03*
X028561Y031199D03*
X029053Y032675D03*
X029545Y033167D03*
X030037Y032675D03*
X030530Y032183D03*
X031022Y031691D03*
X031514Y032183D03*
X032006Y031691D03*
X032498Y032183D03*
X032006Y032675D03*
X032498Y033167D03*
X032990Y032675D03*
X033482Y033167D03*
X033974Y032675D03*
X034467Y032183D03*
X034959Y031691D03*
X035451Y032183D03*
X035943Y031691D03*
X036435Y032183D03*
X036927Y031691D03*
X036435Y031199D03*
X035943Y030707D03*
X035451Y031199D03*
X034959Y030707D03*
X035451Y030215D03*
X035943Y029722D03*
X036435Y029230D03*
X035943Y028738D03*
X035451Y028246D03*
X034959Y027754D03*
X035451Y027262D03*
X035943Y026770D03*
X036435Y027262D03*
X034959Y026770D03*
X033974Y027754D03*
X034467Y028246D03*
X034959Y028738D03*
X035451Y029230D03*
X034959Y029722D03*
X034467Y030215D03*
X033974Y029722D03*
X032990Y030707D03*
X032498Y031199D03*
X032006Y030707D03*
X031514Y031199D03*
X031022Y032675D03*
X031514Y033167D03*
X032006Y033659D03*
X032498Y034152D03*
X032006Y034644D03*
X031514Y035136D03*
X031022Y035628D03*
X031514Y036120D03*
X031022Y036612D03*
X031514Y037104D03*
X031022Y037596D03*
X030037Y036612D03*
X029545Y036120D03*
X029053Y036612D03*
X028561Y036120D03*
X028069Y035628D03*
X028561Y035136D03*
X028069Y036612D03*
X029053Y037596D03*
X029545Y037104D03*
X030530Y036120D03*
X030037Y035628D03*
X030530Y035136D03*
X031022Y034644D03*
X031514Y034152D03*
X031022Y033659D03*
X030530Y033167D03*
X030037Y033659D03*
X030530Y034152D03*
X030037Y034644D03*
X029053Y033659D03*
X025608Y033167D03*
X025116Y033659D03*
X024132Y032675D03*
X032990Y033659D03*
X033482Y034152D03*
X032990Y034644D03*
X033482Y035136D03*
X032990Y035628D03*
X034959Y033659D03*
X035451Y033167D03*
X035943Y032675D03*
X036927Y032675D03*
X037419Y032183D03*
X037911Y031691D03*
X037419Y031199D03*
X036927Y030707D03*
X036435Y030215D03*
X036927Y029722D03*
X037419Y029230D03*
X036927Y028738D03*
X037911Y028738D03*
X038404Y028246D03*
X038896Y027754D03*
X039388Y028246D03*
X039880Y027754D03*
X040372Y027262D03*
X040864Y027754D03*
X041356Y026770D03*
X041848Y027262D03*
X040864Y026278D03*
X040372Y025785D03*
X039880Y025293D03*
X040372Y024801D03*
X039880Y024309D03*
X039388Y023817D03*
X039880Y023325D03*
X040372Y022833D03*
X040864Y023325D03*
X041356Y024801D03*
X040864Y025293D03*
X041356Y025785D03*
X041848Y025293D03*
X042341Y024801D03*
X042833Y024309D03*
X043325Y023817D03*
X043817Y024309D03*
X044309Y024801D03*
X043817Y025293D03*
X043325Y024801D03*
X042833Y025293D03*
X043325Y025785D03*
X042833Y026278D03*
X044309Y025785D03*
X044801Y025293D03*
X045293Y024801D03*
X045785Y025293D03*
X045293Y025785D03*
X044801Y026278D03*
X045293Y026770D03*
X045785Y027262D03*
X045293Y027754D03*
X044801Y028246D03*
X044309Y027754D03*
X045785Y028246D03*
X046770Y027262D03*
X046278Y026770D03*
X045785Y026278D03*
X046770Y025293D03*
X046278Y024801D03*
X044801Y023325D03*
X044309Y022833D03*
X043817Y023325D03*
X043325Y022833D03*
X042341Y023817D03*
X039388Y024801D03*
X038896Y024309D03*
X038404Y023817D03*
X039388Y022833D03*
X039388Y025785D03*
X039880Y026278D03*
X039388Y026770D03*
X038896Y026278D03*
X038404Y025785D03*
X038896Y028738D03*
X039388Y029230D03*
X039880Y029722D03*
X040372Y029230D03*
X040372Y030215D03*
X039880Y030707D03*
X039388Y031199D03*
X038896Y031691D03*
X039388Y032183D03*
X038896Y032675D03*
X039388Y033167D03*
X039880Y033659D03*
X040372Y033167D03*
X040372Y034152D03*
X039880Y034644D03*
X039388Y035136D03*
X038896Y035628D03*
X039388Y036120D03*
X038896Y036612D03*
X039388Y037104D03*
X038896Y037596D03*
X037911Y036612D03*
X037419Y036120D03*
X036927Y036612D03*
X036435Y036120D03*
X035943Y035628D03*
X036435Y035136D03*
X035943Y036612D03*
X036927Y037596D03*
X037419Y037104D03*
X038404Y036120D03*
X037911Y035628D03*
X038404Y035136D03*
X038896Y034644D03*
X039388Y034152D03*
X038896Y033659D03*
X038404Y033167D03*
X037911Y032675D03*
X037419Y033167D03*
X036927Y033659D03*
X037911Y033659D03*
X038404Y034152D03*
X037911Y034644D03*
X040864Y034644D03*
X041356Y035136D03*
X040864Y035628D03*
X041356Y034152D03*
X040864Y031691D03*
X041356Y031199D03*
X040864Y030707D03*
X041356Y030215D03*
X039388Y030215D03*
X038896Y030707D03*
X038404Y031199D03*
X037911Y030707D03*
X037419Y030215D03*
X037911Y029722D03*
X038404Y029230D03*
X038896Y029722D03*
X038404Y030215D03*
X038404Y032183D03*
X034959Y032675D03*
X033974Y031691D03*
X034467Y031199D03*
D11*
X047862Y037823D03*
X050303Y032862D03*
X050303Y027350D03*
X050303Y021839D03*
X020421Y021445D03*
X020421Y026957D03*
X020421Y032469D03*
X020421Y037980D03*
D12*
X020421Y037980D03*
X020421Y032469D03*
X020421Y026957D03*
X020421Y021445D03*
X047862Y037823D03*
X050303Y032862D03*
X050303Y027350D03*
X050303Y021839D03*
D13*
X051800Y038167D02*
X051430Y038537D01*
X054980Y042087D01*
X055350Y041717D01*
X051800Y038167D01*
X051857Y038224D02*
X051743Y038224D01*
X051686Y038281D02*
X051914Y038281D01*
X051971Y038338D02*
X051629Y038338D01*
X051572Y038395D02*
X052028Y038395D01*
X052085Y038452D02*
X051515Y038452D01*
X051458Y038509D02*
X052142Y038509D01*
X052199Y038566D02*
X051459Y038566D01*
X051516Y038623D02*
X052256Y038623D01*
X052313Y038680D02*
X051573Y038680D01*
X051630Y038737D02*
X052370Y038737D01*
X052427Y038794D02*
X051687Y038794D01*
X051744Y038851D02*
X052484Y038851D01*
X052541Y038908D02*
X051801Y038908D01*
X051858Y038965D02*
X052598Y038965D01*
X052655Y039022D02*
X051915Y039022D01*
X051972Y039079D02*
X052712Y039079D01*
X052769Y039136D02*
X052029Y039136D01*
X052086Y039193D02*
X052826Y039193D01*
X052883Y039250D02*
X052143Y039250D01*
X052200Y039307D02*
X052940Y039307D01*
X052997Y039364D02*
X052257Y039364D01*
X052314Y039421D02*
X053054Y039421D01*
X053111Y039478D02*
X052371Y039478D01*
X052428Y039535D02*
X053168Y039535D01*
X053225Y039592D02*
X052485Y039592D01*
X052542Y039649D02*
X053282Y039649D01*
X053339Y039706D02*
X052599Y039706D01*
X052656Y039763D02*
X053396Y039763D01*
X053453Y039820D02*
X052713Y039820D01*
X052770Y039877D02*
X053510Y039877D01*
X053567Y039934D02*
X052827Y039934D01*
X052884Y039991D02*
X053624Y039991D01*
X053681Y040048D02*
X052941Y040048D01*
X052998Y040105D02*
X053738Y040105D01*
X053795Y040162D02*
X053055Y040162D01*
X053112Y040219D02*
X053852Y040219D01*
X053909Y040276D02*
X053169Y040276D01*
X053226Y040333D02*
X053966Y040333D01*
X054023Y040390D02*
X053283Y040390D01*
X053340Y040447D02*
X054080Y040447D01*
X054137Y040504D02*
X053397Y040504D01*
X053454Y040561D02*
X054194Y040561D01*
X054251Y040618D02*
X053511Y040618D01*
X053568Y040675D02*
X054308Y040675D01*
X054365Y040732D02*
X053625Y040732D01*
X053682Y040789D02*
X054422Y040789D01*
X054479Y040846D02*
X053739Y040846D01*
X053796Y040903D02*
X054536Y040903D01*
X054593Y040960D02*
X053853Y040960D01*
X053910Y041017D02*
X054650Y041017D01*
X054707Y041074D02*
X053967Y041074D01*
X054024Y041131D02*
X054764Y041131D01*
X054821Y041188D02*
X054081Y041188D01*
X054138Y041245D02*
X054878Y041245D01*
X054935Y041302D02*
X054195Y041302D01*
X054252Y041359D02*
X054992Y041359D01*
X055049Y041416D02*
X054309Y041416D01*
X054366Y041473D02*
X055106Y041473D01*
X055163Y041530D02*
X054423Y041530D01*
X054480Y041587D02*
X055220Y041587D01*
X055277Y041644D02*
X054537Y041644D01*
X054594Y041701D02*
X055334Y041701D01*
X055309Y041758D02*
X054651Y041758D01*
X054708Y041815D02*
X055252Y041815D01*
X055195Y041872D02*
X054765Y041872D01*
X054822Y041929D02*
X055138Y041929D01*
X055081Y041986D02*
X054879Y041986D01*
X054936Y042043D02*
X055024Y042043D01*
X051040Y038928D02*
X050671Y039297D01*
X054044Y042670D01*
X054413Y042301D01*
X051040Y038928D01*
X051097Y038985D02*
X050983Y038985D01*
X050926Y039042D02*
X051154Y039042D01*
X051211Y039099D02*
X050869Y039099D01*
X050812Y039156D02*
X051268Y039156D01*
X051325Y039213D02*
X050755Y039213D01*
X050698Y039270D02*
X051382Y039270D01*
X051439Y039327D02*
X050701Y039327D01*
X050758Y039384D02*
X051496Y039384D01*
X051553Y039441D02*
X050815Y039441D01*
X050872Y039498D02*
X051610Y039498D01*
X051667Y039555D02*
X050929Y039555D01*
X050986Y039612D02*
X051724Y039612D01*
X051781Y039669D02*
X051043Y039669D01*
X051100Y039726D02*
X051838Y039726D01*
X051895Y039783D02*
X051157Y039783D01*
X051214Y039840D02*
X051952Y039840D01*
X052009Y039897D02*
X051271Y039897D01*
X051328Y039954D02*
X052066Y039954D01*
X052123Y040011D02*
X051385Y040011D01*
X051442Y040068D02*
X052180Y040068D01*
X052237Y040125D02*
X051499Y040125D01*
X051556Y040182D02*
X052294Y040182D01*
X052351Y040239D02*
X051613Y040239D01*
X051670Y040296D02*
X052408Y040296D01*
X052465Y040353D02*
X051727Y040353D01*
X051784Y040410D02*
X052522Y040410D01*
X052579Y040467D02*
X051841Y040467D01*
X051898Y040524D02*
X052636Y040524D01*
X052693Y040581D02*
X051955Y040581D01*
X052012Y040638D02*
X052750Y040638D01*
X052807Y040695D02*
X052069Y040695D01*
X052126Y040752D02*
X052864Y040752D01*
X052921Y040809D02*
X052183Y040809D01*
X052240Y040866D02*
X052978Y040866D01*
X053035Y040923D02*
X052297Y040923D01*
X052354Y040980D02*
X053092Y040980D01*
X053149Y041037D02*
X052411Y041037D01*
X052468Y041094D02*
X053206Y041094D01*
X053263Y041151D02*
X052525Y041151D01*
X052582Y041208D02*
X053320Y041208D01*
X053377Y041265D02*
X052639Y041265D01*
X052696Y041322D02*
X053434Y041322D01*
X053491Y041379D02*
X052753Y041379D01*
X052810Y041436D02*
X053548Y041436D01*
X053605Y041493D02*
X052867Y041493D01*
X052924Y041550D02*
X053662Y041550D01*
X053719Y041607D02*
X052981Y041607D01*
X053038Y041664D02*
X053776Y041664D01*
X053833Y041721D02*
X053095Y041721D01*
X053152Y041778D02*
X053890Y041778D01*
X053947Y041835D02*
X053209Y041835D01*
X053266Y041892D02*
X054004Y041892D01*
X054061Y041949D02*
X053323Y041949D01*
X053380Y042006D02*
X054118Y042006D01*
X054175Y042063D02*
X053437Y042063D01*
X053494Y042120D02*
X054232Y042120D01*
X054289Y042177D02*
X053551Y042177D01*
X053608Y042234D02*
X054346Y042234D01*
X054403Y042291D02*
X053665Y042291D01*
X053722Y042348D02*
X054366Y042348D01*
X054309Y042405D02*
X053779Y042405D01*
X053836Y042462D02*
X054252Y042462D01*
X054195Y042519D02*
X053893Y042519D01*
X053950Y042576D02*
X054138Y042576D01*
X054081Y042633D02*
X054007Y042633D01*
X050439Y039529D02*
X050070Y039898D01*
X053443Y043271D01*
X053812Y042902D01*
X050439Y039529D01*
X050496Y039586D02*
X050382Y039586D01*
X050325Y039643D02*
X050553Y039643D01*
X050610Y039700D02*
X050268Y039700D01*
X050211Y039757D02*
X050667Y039757D01*
X050724Y039814D02*
X050154Y039814D01*
X050097Y039871D02*
X050781Y039871D01*
X050838Y039928D02*
X050100Y039928D01*
X050157Y039985D02*
X050895Y039985D01*
X050952Y040042D02*
X050214Y040042D01*
X050271Y040099D02*
X051009Y040099D01*
X051066Y040156D02*
X050328Y040156D01*
X050385Y040213D02*
X051123Y040213D01*
X051180Y040270D02*
X050442Y040270D01*
X050499Y040327D02*
X051237Y040327D01*
X051294Y040384D02*
X050556Y040384D01*
X050613Y040441D02*
X051351Y040441D01*
X051408Y040498D02*
X050670Y040498D01*
X050727Y040555D02*
X051465Y040555D01*
X051522Y040612D02*
X050784Y040612D01*
X050841Y040669D02*
X051579Y040669D01*
X051636Y040726D02*
X050898Y040726D01*
X050955Y040783D02*
X051693Y040783D01*
X051750Y040840D02*
X051012Y040840D01*
X051069Y040897D02*
X051807Y040897D01*
X051864Y040954D02*
X051126Y040954D01*
X051183Y041011D02*
X051921Y041011D01*
X051978Y041068D02*
X051240Y041068D01*
X051297Y041125D02*
X052035Y041125D01*
X052092Y041182D02*
X051354Y041182D01*
X051411Y041239D02*
X052149Y041239D01*
X052206Y041296D02*
X051468Y041296D01*
X051525Y041353D02*
X052263Y041353D01*
X052320Y041410D02*
X051582Y041410D01*
X051639Y041467D02*
X052377Y041467D01*
X052434Y041524D02*
X051696Y041524D01*
X051753Y041581D02*
X052491Y041581D01*
X052548Y041638D02*
X051810Y041638D01*
X051867Y041695D02*
X052605Y041695D01*
X052662Y041752D02*
X051924Y041752D01*
X051981Y041809D02*
X052719Y041809D01*
X052776Y041866D02*
X052038Y041866D01*
X052095Y041923D02*
X052833Y041923D01*
X052890Y041980D02*
X052152Y041980D01*
X052209Y042037D02*
X052947Y042037D01*
X053004Y042094D02*
X052266Y042094D01*
X052323Y042151D02*
X053061Y042151D01*
X053118Y042208D02*
X052380Y042208D01*
X052437Y042265D02*
X053175Y042265D01*
X053232Y042322D02*
X052494Y042322D01*
X052551Y042379D02*
X053289Y042379D01*
X053346Y042436D02*
X052608Y042436D01*
X052665Y042493D02*
X053403Y042493D01*
X053460Y042550D02*
X052722Y042550D01*
X052779Y042607D02*
X053517Y042607D01*
X053574Y042664D02*
X052836Y042664D01*
X052893Y042721D02*
X053631Y042721D01*
X053688Y042778D02*
X052950Y042778D01*
X053007Y042835D02*
X053745Y042835D01*
X053802Y042892D02*
X053064Y042892D01*
X053121Y042949D02*
X053765Y042949D01*
X053708Y043006D02*
X053178Y043006D01*
X053235Y043063D02*
X053651Y043063D01*
X053594Y043120D02*
X053292Y043120D01*
X053349Y043177D02*
X053537Y043177D01*
X053480Y043234D02*
X053406Y043234D01*
X049679Y040289D02*
X049309Y040659D01*
X052859Y044209D01*
X053229Y043839D01*
X049679Y040289D01*
X049736Y040346D02*
X049622Y040346D01*
X049565Y040403D02*
X049793Y040403D01*
X049850Y040460D02*
X049508Y040460D01*
X049451Y040517D02*
X049907Y040517D01*
X049964Y040574D02*
X049394Y040574D01*
X049337Y040631D02*
X050021Y040631D01*
X050078Y040688D02*
X049338Y040688D01*
X049395Y040745D02*
X050135Y040745D01*
X050192Y040802D02*
X049452Y040802D01*
X049509Y040859D02*
X050249Y040859D01*
X050306Y040916D02*
X049566Y040916D01*
X049623Y040973D02*
X050363Y040973D01*
X050420Y041030D02*
X049680Y041030D01*
X049737Y041087D02*
X050477Y041087D01*
X050534Y041144D02*
X049794Y041144D01*
X049851Y041201D02*
X050591Y041201D01*
X050648Y041258D02*
X049908Y041258D01*
X049965Y041315D02*
X050705Y041315D01*
X050762Y041372D02*
X050022Y041372D01*
X050079Y041429D02*
X050819Y041429D01*
X050876Y041486D02*
X050136Y041486D01*
X050193Y041543D02*
X050933Y041543D01*
X050990Y041600D02*
X050250Y041600D01*
X050307Y041657D02*
X051047Y041657D01*
X051104Y041714D02*
X050364Y041714D01*
X050421Y041771D02*
X051161Y041771D01*
X051218Y041828D02*
X050478Y041828D01*
X050535Y041885D02*
X051275Y041885D01*
X051332Y041942D02*
X050592Y041942D01*
X050649Y041999D02*
X051389Y041999D01*
X051446Y042056D02*
X050706Y042056D01*
X050763Y042113D02*
X051503Y042113D01*
X051560Y042170D02*
X050820Y042170D01*
X050877Y042227D02*
X051617Y042227D01*
X051674Y042284D02*
X050934Y042284D01*
X050991Y042341D02*
X051731Y042341D01*
X051788Y042398D02*
X051048Y042398D01*
X051105Y042455D02*
X051845Y042455D01*
X051902Y042512D02*
X051162Y042512D01*
X051219Y042569D02*
X051959Y042569D01*
X052016Y042626D02*
X051276Y042626D01*
X051333Y042683D02*
X052073Y042683D01*
X052130Y042740D02*
X051390Y042740D01*
X051447Y042797D02*
X052187Y042797D01*
X052244Y042854D02*
X051504Y042854D01*
X051561Y042911D02*
X052301Y042911D01*
X052358Y042968D02*
X051618Y042968D01*
X051675Y043025D02*
X052415Y043025D01*
X052472Y043082D02*
X051732Y043082D01*
X051789Y043139D02*
X052529Y043139D01*
X052586Y043196D02*
X051846Y043196D01*
X051903Y043253D02*
X052643Y043253D01*
X052700Y043310D02*
X051960Y043310D01*
X052017Y043367D02*
X052757Y043367D01*
X052814Y043424D02*
X052074Y043424D01*
X052131Y043481D02*
X052871Y043481D01*
X052928Y043538D02*
X052188Y043538D01*
X052245Y043595D02*
X052985Y043595D01*
X053042Y043652D02*
X052302Y043652D01*
X052359Y043709D02*
X053099Y043709D01*
X053156Y043766D02*
X052416Y043766D01*
X052473Y043823D02*
X053213Y043823D01*
X053188Y043880D02*
X052530Y043880D01*
X052587Y043937D02*
X053131Y043937D01*
X053074Y043994D02*
X052644Y043994D01*
X052701Y044051D02*
X053017Y044051D01*
X052960Y044108D02*
X052758Y044108D01*
X052815Y044165D02*
X052903Y044165D01*
D14*
X019201Y019870D03*
X019634Y019870D03*
X020067Y019870D03*
X020500Y019870D03*
X020933Y019870D03*
X021366Y019870D03*
X021799Y019870D03*
X022232Y019870D03*
X022665Y019870D03*
X023098Y019870D03*
X023531Y019870D03*
X023965Y019870D03*
X024398Y019870D03*
X024831Y019870D03*
X025264Y019870D03*
X025697Y019870D03*
X026130Y019870D03*
X026563Y019870D03*
X026996Y019870D03*
X027429Y019870D03*
X027862Y019870D03*
X028295Y019870D03*
X028728Y019870D03*
X029161Y019870D03*
X029594Y019870D03*
X030028Y019870D03*
X030461Y019870D03*
X030894Y019870D03*
X031327Y019870D03*
X031760Y019870D03*
X032193Y019870D03*
X032626Y019870D03*
X033059Y019870D03*
X033492Y019870D03*
X033925Y019870D03*
X034358Y019870D03*
X034791Y019870D03*
X035224Y019870D03*
X035657Y019870D03*
X036091Y019870D03*
X036524Y019870D03*
X036957Y019870D03*
X037390Y019870D03*
X037823Y019870D03*
X038256Y019870D03*
X038689Y019870D03*
X039122Y019870D03*
X039555Y019870D03*
X039988Y019870D03*
X040421Y019870D03*
X040854Y019870D03*
X041287Y019870D03*
X041720Y019870D03*
X042154Y019870D03*
X042587Y019870D03*
X043020Y019870D03*
X043453Y019870D03*
X043886Y019870D03*
X044319Y019870D03*
X044752Y019870D03*
X045185Y019870D03*
X045618Y019870D03*
X046051Y019870D03*
X046484Y019870D03*
X046917Y019870D03*
X047350Y019870D03*
X047783Y019870D03*
X048217Y019870D03*
X048650Y019870D03*
X049083Y019870D03*
X049516Y019870D03*
X049949Y019870D03*
X050382Y019870D03*
X050815Y019870D03*
X051248Y019870D03*
X051681Y019870D03*
X051681Y020303D03*
X051681Y020736D03*
X051681Y021169D03*
X051681Y021602D03*
X051681Y022035D03*
X051681Y022469D03*
X051681Y022902D03*
X051681Y023335D03*
X051681Y023768D03*
X051681Y024201D03*
X051681Y024634D03*
X051681Y025067D03*
X051681Y025500D03*
X051681Y025933D03*
X051681Y026366D03*
X051681Y026799D03*
X051681Y027232D03*
X051681Y027665D03*
X051681Y028098D03*
X051681Y028531D03*
X051681Y028965D03*
X051681Y029398D03*
X051681Y029831D03*
X051681Y030264D03*
X051681Y030697D03*
X051681Y031130D03*
X051681Y031563D03*
X051681Y031996D03*
X051681Y032429D03*
X051681Y032862D03*
X051681Y033295D03*
X051681Y033728D03*
X051681Y034161D03*
X051681Y034594D03*
X051681Y035028D03*
X051681Y035461D03*
X051681Y035894D03*
X051681Y036327D03*
X051681Y036760D03*
X051681Y037193D03*
X049280Y040259D03*
X048650Y040657D03*
X048217Y040657D03*
X047783Y040657D03*
X047350Y040657D03*
X046917Y040657D03*
X046484Y040657D03*
X046051Y040657D03*
X045618Y040657D03*
X045185Y040657D03*
X044752Y040657D03*
X044319Y040657D03*
X043886Y040657D03*
X043453Y040657D03*
X043020Y040657D03*
X042587Y040657D03*
X042154Y040657D03*
X041720Y040657D03*
X041287Y040657D03*
X040854Y040657D03*
X040421Y040657D03*
X039988Y040657D03*
X039555Y040657D03*
X039122Y040657D03*
X038689Y040657D03*
X038256Y040657D03*
X037823Y040657D03*
X037390Y040657D03*
X036957Y040657D03*
X036524Y040657D03*
X036091Y040657D03*
X035657Y040657D03*
X035224Y040657D03*
X034791Y040657D03*
X034358Y040657D03*
X033925Y040657D03*
X033492Y040657D03*
X033059Y040657D03*
X032626Y040657D03*
X032193Y040657D03*
X031760Y040657D03*
X031327Y040657D03*
X030894Y040657D03*
X030461Y040657D03*
X030028Y040657D03*
X029594Y040657D03*
X029161Y040657D03*
X028728Y040657D03*
X028295Y040657D03*
X027862Y040657D03*
X027429Y040657D03*
X026996Y040657D03*
X026563Y040657D03*
X026130Y040657D03*
X025697Y040657D03*
X025264Y040657D03*
X024831Y040657D03*
X024398Y040657D03*
X023965Y040657D03*
X023531Y040657D03*
X023098Y040657D03*
X022665Y040657D03*
X022232Y040657D03*
X021799Y040657D03*
X021366Y040657D03*
X020933Y040657D03*
X020500Y040657D03*
X020067Y040657D03*
X019634Y040657D03*
X019201Y040657D03*
X019201Y040224D03*
X019201Y039791D03*
X019201Y039358D03*
X019201Y038925D03*
X019201Y038492D03*
X019201Y038059D03*
X019201Y037626D03*
X019201Y037193D03*
X019201Y036760D03*
X019201Y036327D03*
X019201Y035894D03*
X019201Y035461D03*
X019201Y035028D03*
X019201Y034594D03*
X019201Y034161D03*
X019201Y033728D03*
X019201Y033295D03*
X019201Y032862D03*
X019201Y032429D03*
X019201Y031996D03*
X019201Y031563D03*
X019201Y031130D03*
X019201Y030697D03*
X019201Y030264D03*
X019201Y029831D03*
X019201Y029398D03*
X019201Y028965D03*
X019201Y028531D03*
X019201Y028098D03*
X019201Y027665D03*
X019201Y027232D03*
X019201Y026799D03*
X019201Y026366D03*
X019201Y025933D03*
X019201Y025500D03*
X019201Y025067D03*
X019201Y024634D03*
X019201Y024201D03*
X019201Y023768D03*
X019201Y023335D03*
X019201Y022902D03*
X019201Y022469D03*
X019201Y022035D03*
X019201Y021602D03*
X019201Y021169D03*
X019201Y020736D03*
X019201Y020303D03*
M02*
