G75*
G70*
%OFA0B0*%
%FSLAX24Y24*%
%IPPOS*%
%LPD*%
%AMOC8*
5,1,8,0,0,1.08239X$1,22.5*
%
%ADD10C,0.0000*%
D10*
X018768Y019437D02*
X052232Y019437D01*
X052232Y037744D01*
X055655Y041166D01*
X055681Y041195D01*
X055704Y041226D01*
X055723Y041259D01*
X055740Y041294D01*
X055753Y041331D01*
X055762Y041368D01*
X055768Y041406D01*
X055770Y041445D01*
X055768Y041484D01*
X055762Y041522D01*
X055753Y041559D01*
X055740Y041596D01*
X055723Y041631D01*
X055704Y041664D01*
X055681Y041695D01*
X055655Y041724D01*
X055655Y041723D02*
X052865Y044513D01*
X052866Y044514D02*
X052837Y044540D01*
X052806Y044563D01*
X052773Y044582D01*
X052738Y044599D01*
X052701Y044612D01*
X052664Y044621D01*
X052626Y044627D01*
X052587Y044629D01*
X052548Y044627D01*
X052510Y044621D01*
X052473Y044612D01*
X052436Y044599D01*
X052401Y044582D01*
X052368Y044563D01*
X052337Y044540D01*
X052308Y044514D01*
X052308Y044513D02*
X048886Y041091D01*
X018768Y041091D01*
X018768Y019437D01*
X020204Y021445D02*
X020206Y021474D01*
X020212Y021502D01*
X020221Y021530D01*
X020234Y021556D01*
X020251Y021579D01*
X020270Y021601D01*
X020292Y021620D01*
X020317Y021635D01*
X020343Y021648D01*
X020371Y021656D01*
X020399Y021661D01*
X020428Y021662D01*
X020457Y021659D01*
X020485Y021652D01*
X020512Y021642D01*
X020538Y021628D01*
X020561Y021611D01*
X020582Y021591D01*
X020600Y021568D01*
X020615Y021543D01*
X020626Y021516D01*
X020634Y021488D01*
X020638Y021459D01*
X020638Y021431D01*
X020634Y021402D01*
X020626Y021374D01*
X020615Y021347D01*
X020600Y021322D01*
X020582Y021299D01*
X020561Y021279D01*
X020538Y021262D01*
X020512Y021248D01*
X020485Y021238D01*
X020457Y021231D01*
X020428Y021228D01*
X020399Y021229D01*
X020371Y021234D01*
X020343Y021242D01*
X020317Y021255D01*
X020292Y021270D01*
X020270Y021289D01*
X020251Y021311D01*
X020234Y021334D01*
X020221Y021360D01*
X020212Y021388D01*
X020206Y021416D01*
X020204Y021445D01*
X020204Y026957D02*
X020206Y026986D01*
X020212Y027014D01*
X020221Y027042D01*
X020234Y027068D01*
X020251Y027091D01*
X020270Y027113D01*
X020292Y027132D01*
X020317Y027147D01*
X020343Y027160D01*
X020371Y027168D01*
X020399Y027173D01*
X020428Y027174D01*
X020457Y027171D01*
X020485Y027164D01*
X020512Y027154D01*
X020538Y027140D01*
X020561Y027123D01*
X020582Y027103D01*
X020600Y027080D01*
X020615Y027055D01*
X020626Y027028D01*
X020634Y027000D01*
X020638Y026971D01*
X020638Y026943D01*
X020634Y026914D01*
X020626Y026886D01*
X020615Y026859D01*
X020600Y026834D01*
X020582Y026811D01*
X020561Y026791D01*
X020538Y026774D01*
X020512Y026760D01*
X020485Y026750D01*
X020457Y026743D01*
X020428Y026740D01*
X020399Y026741D01*
X020371Y026746D01*
X020343Y026754D01*
X020317Y026767D01*
X020292Y026782D01*
X020270Y026801D01*
X020251Y026823D01*
X020234Y026846D01*
X020221Y026872D01*
X020212Y026900D01*
X020206Y026928D01*
X020204Y026957D01*
X020204Y032469D02*
X020206Y032498D01*
X020212Y032526D01*
X020221Y032554D01*
X020234Y032580D01*
X020251Y032603D01*
X020270Y032625D01*
X020292Y032644D01*
X020317Y032659D01*
X020343Y032672D01*
X020371Y032680D01*
X020399Y032685D01*
X020428Y032686D01*
X020457Y032683D01*
X020485Y032676D01*
X020512Y032666D01*
X020538Y032652D01*
X020561Y032635D01*
X020582Y032615D01*
X020600Y032592D01*
X020615Y032567D01*
X020626Y032540D01*
X020634Y032512D01*
X020638Y032483D01*
X020638Y032455D01*
X020634Y032426D01*
X020626Y032398D01*
X020615Y032371D01*
X020600Y032346D01*
X020582Y032323D01*
X020561Y032303D01*
X020538Y032286D01*
X020512Y032272D01*
X020485Y032262D01*
X020457Y032255D01*
X020428Y032252D01*
X020399Y032253D01*
X020371Y032258D01*
X020343Y032266D01*
X020317Y032279D01*
X020292Y032294D01*
X020270Y032313D01*
X020251Y032335D01*
X020234Y032358D01*
X020221Y032384D01*
X020212Y032412D01*
X020206Y032440D01*
X020204Y032469D01*
X020204Y037980D02*
X020206Y038009D01*
X020212Y038037D01*
X020221Y038065D01*
X020234Y038091D01*
X020251Y038114D01*
X020270Y038136D01*
X020292Y038155D01*
X020317Y038170D01*
X020343Y038183D01*
X020371Y038191D01*
X020399Y038196D01*
X020428Y038197D01*
X020457Y038194D01*
X020485Y038187D01*
X020512Y038177D01*
X020538Y038163D01*
X020561Y038146D01*
X020582Y038126D01*
X020600Y038103D01*
X020615Y038078D01*
X020626Y038051D01*
X020634Y038023D01*
X020638Y037994D01*
X020638Y037966D01*
X020634Y037937D01*
X020626Y037909D01*
X020615Y037882D01*
X020600Y037857D01*
X020582Y037834D01*
X020561Y037814D01*
X020538Y037797D01*
X020512Y037783D01*
X020485Y037773D01*
X020457Y037766D01*
X020428Y037763D01*
X020399Y037764D01*
X020371Y037769D01*
X020343Y037777D01*
X020317Y037790D01*
X020292Y037805D01*
X020270Y037824D01*
X020251Y037846D01*
X020234Y037869D01*
X020221Y037895D01*
X020212Y037923D01*
X020206Y037951D01*
X020204Y037980D01*
X047645Y037823D02*
X047647Y037852D01*
X047653Y037880D01*
X047662Y037908D01*
X047675Y037934D01*
X047692Y037957D01*
X047711Y037979D01*
X047733Y037998D01*
X047758Y038013D01*
X047784Y038026D01*
X047812Y038034D01*
X047840Y038039D01*
X047869Y038040D01*
X047898Y038037D01*
X047926Y038030D01*
X047953Y038020D01*
X047979Y038006D01*
X048002Y037989D01*
X048023Y037969D01*
X048041Y037946D01*
X048056Y037921D01*
X048067Y037894D01*
X048075Y037866D01*
X048079Y037837D01*
X048079Y037809D01*
X048075Y037780D01*
X048067Y037752D01*
X048056Y037725D01*
X048041Y037700D01*
X048023Y037677D01*
X048002Y037657D01*
X047979Y037640D01*
X047953Y037626D01*
X047926Y037616D01*
X047898Y037609D01*
X047869Y037606D01*
X047840Y037607D01*
X047812Y037612D01*
X047784Y037620D01*
X047758Y037633D01*
X047733Y037648D01*
X047711Y037667D01*
X047692Y037689D01*
X047675Y037712D01*
X047662Y037738D01*
X047653Y037766D01*
X047647Y037794D01*
X047645Y037823D01*
X050086Y032862D02*
X050088Y032891D01*
X050094Y032919D01*
X050103Y032947D01*
X050116Y032973D01*
X050133Y032996D01*
X050152Y033018D01*
X050174Y033037D01*
X050199Y033052D01*
X050225Y033065D01*
X050253Y033073D01*
X050281Y033078D01*
X050310Y033079D01*
X050339Y033076D01*
X050367Y033069D01*
X050394Y033059D01*
X050420Y033045D01*
X050443Y033028D01*
X050464Y033008D01*
X050482Y032985D01*
X050497Y032960D01*
X050508Y032933D01*
X050516Y032905D01*
X050520Y032876D01*
X050520Y032848D01*
X050516Y032819D01*
X050508Y032791D01*
X050497Y032764D01*
X050482Y032739D01*
X050464Y032716D01*
X050443Y032696D01*
X050420Y032679D01*
X050394Y032665D01*
X050367Y032655D01*
X050339Y032648D01*
X050310Y032645D01*
X050281Y032646D01*
X050253Y032651D01*
X050225Y032659D01*
X050199Y032672D01*
X050174Y032687D01*
X050152Y032706D01*
X050133Y032728D01*
X050116Y032751D01*
X050103Y032777D01*
X050094Y032805D01*
X050088Y032833D01*
X050086Y032862D01*
X050086Y027350D02*
X050088Y027379D01*
X050094Y027407D01*
X050103Y027435D01*
X050116Y027461D01*
X050133Y027484D01*
X050152Y027506D01*
X050174Y027525D01*
X050199Y027540D01*
X050225Y027553D01*
X050253Y027561D01*
X050281Y027566D01*
X050310Y027567D01*
X050339Y027564D01*
X050367Y027557D01*
X050394Y027547D01*
X050420Y027533D01*
X050443Y027516D01*
X050464Y027496D01*
X050482Y027473D01*
X050497Y027448D01*
X050508Y027421D01*
X050516Y027393D01*
X050520Y027364D01*
X050520Y027336D01*
X050516Y027307D01*
X050508Y027279D01*
X050497Y027252D01*
X050482Y027227D01*
X050464Y027204D01*
X050443Y027184D01*
X050420Y027167D01*
X050394Y027153D01*
X050367Y027143D01*
X050339Y027136D01*
X050310Y027133D01*
X050281Y027134D01*
X050253Y027139D01*
X050225Y027147D01*
X050199Y027160D01*
X050174Y027175D01*
X050152Y027194D01*
X050133Y027216D01*
X050116Y027239D01*
X050103Y027265D01*
X050094Y027293D01*
X050088Y027321D01*
X050086Y027350D01*
X050086Y021839D02*
X050088Y021868D01*
X050094Y021896D01*
X050103Y021924D01*
X050116Y021950D01*
X050133Y021973D01*
X050152Y021995D01*
X050174Y022014D01*
X050199Y022029D01*
X050225Y022042D01*
X050253Y022050D01*
X050281Y022055D01*
X050310Y022056D01*
X050339Y022053D01*
X050367Y022046D01*
X050394Y022036D01*
X050420Y022022D01*
X050443Y022005D01*
X050464Y021985D01*
X050482Y021962D01*
X050497Y021937D01*
X050508Y021910D01*
X050516Y021882D01*
X050520Y021853D01*
X050520Y021825D01*
X050516Y021796D01*
X050508Y021768D01*
X050497Y021741D01*
X050482Y021716D01*
X050464Y021693D01*
X050443Y021673D01*
X050420Y021656D01*
X050394Y021642D01*
X050367Y021632D01*
X050339Y021625D01*
X050310Y021622D01*
X050281Y021623D01*
X050253Y021628D01*
X050225Y021636D01*
X050199Y021649D01*
X050174Y021664D01*
X050152Y021683D01*
X050133Y021705D01*
X050116Y021728D01*
X050103Y021754D01*
X050094Y021782D01*
X050088Y021810D01*
X050086Y021839D01*
M02*
