%
M48
M72
T01C0.0180
%
T01
X19201Y19870
X19634Y19870
X20067Y19870
X20500Y19870
X20933Y19870
X21366Y19870
X21799Y19870
X22232Y19870
X22665Y19870
X23098Y19870
X23531Y19870
X23965Y19870
X24398Y19870
X24831Y19870
X25264Y19870
X25697Y19870
X26130Y19870
X26563Y19870
X26996Y19870
X27429Y19870
X27862Y19870
X28295Y19870
X28728Y19870
X29161Y19870
X29594Y19870
X30028Y19870
X30461Y19870
X30894Y19870
X31327Y19870
X31760Y19870
X32193Y19870
X32626Y19870
X33059Y19870
X33492Y19870
X33925Y19870
X34358Y19870
X34791Y19870
X35224Y19870
X35657Y19870
X36091Y19870
X36524Y19870
X36957Y19870
X37390Y19870
X37823Y19870
X38256Y19870
X38689Y19870
X39122Y19870
X39555Y19870
X39988Y19870
X40421Y19870
X40854Y19870
X41287Y19870
X41720Y19870
X42154Y19870
X42587Y19870
X43020Y19870
X43453Y19870
X43886Y19870
X44319Y19870
X44752Y19870
X45185Y19870
X45618Y19870
X46051Y19870
X46484Y19870
X46917Y19870
X47350Y19870
X47783Y19870
X48217Y19870
X48650Y19870
X49083Y19870
X49516Y19870
X49949Y19870
X50382Y19870
X50815Y19870
X51248Y19870
X51681Y19870
X51681Y20303
X51681Y20736
X51681Y21169
X51681Y21602
X51681Y22035
X51681Y22469
X51681Y22902
X51681Y23335
X51681Y23768
X51681Y24201
X51681Y24634
X51681Y25067
X51681Y25500
X51681Y25933
X51681Y26366
X51681Y26799
X51681Y27232
X51681Y27665
X51681Y28098
X51681Y28531
X51681Y28965
X51681Y29398
X51681Y29831
X51681Y30264
X51681Y30697
X51681Y31130
X51681Y31563
X51681Y31996
X51681Y32429
X51681Y32862
X51681Y33295
X51681Y33728
X51681Y34161
X51681Y34594
X51681Y35028
X51681Y35461
X51681Y35894
X51681Y36327
X51681Y36760
X51681Y37193
X49280Y40259
X48650Y40657
X48217Y40657
X47783Y40657
X47350Y40657
X46917Y40657
X46484Y40657
X46051Y40657
X45618Y40657
X45185Y40657
X44752Y40657
X44319Y40657
X43886Y40657
X43453Y40657
X43020Y40657
X42587Y40657
X42154Y40657
X41720Y40657
X41287Y40657
X40854Y40657
X40421Y40657
X39988Y40657
X39555Y40657
X39122Y40657
X38689Y40657
X38256Y40657
X37823Y40657
X37390Y40657
X36957Y40657
X36524Y40657
X36091Y40657
X35657Y40657
X35224Y40657
X34791Y40657
X34358Y40657
X33925Y40657
X33492Y40657
X33059Y40657
X32626Y40657
X32193Y40657
X31760Y40657
X31327Y40657
X30894Y40657
X30461Y40657
X30028Y40657
X29594Y40657
X29161Y40657
X28728Y40657
X28295Y40657
X27862Y40657
X27429Y40657
X26996Y40657
X26563Y40657
X26130Y40657
X25697Y40657
X25264Y40657
X24831Y40657
X24398Y40657
X23965Y40657
X23531Y40657
X23098Y40657
X22665Y40657
X22232Y40657
X21799Y40657
X21366Y40657
X20933Y40657
X20500Y40657
X20067Y40657
X19634Y40657
X19201Y40657
X19201Y40224
X19201Y39791
X19201Y39358
X19201Y38925
X19201Y38492
X19201Y38059
X19201Y37626
X19201Y37193
X19201Y36760
X19201Y36327
X19201Y35894
X19201Y35461
X19201Y35028
X19201Y34594
X19201Y34161
X19201Y33728
X19201Y33295
X19201Y32862
X19201Y32429
X19201Y31996
X19201Y31563
X19201Y31130
X19201Y30697
X19201Y30264
X19201Y29831
X19201Y29398
X19201Y28965
X19201Y28531
X19201Y28098
X19201Y27665
X19201Y27232
X19201Y26799
X19201Y26366
X19201Y25933
X19201Y25500
X19201Y25067
X19201Y24634
X19201Y24201
X19201Y23768
X19201Y23335
X19201Y22902
X19201Y22469
X19201Y22035
X19201Y21602
X19201Y21169
X19201Y20736
X19201Y20303
M30
